<svg id="Weight_Plate" data-name="Weight Plate" xmlns="http://www.w3.org/2000/svg" viewBox="0 0 287 287">
  <defs>
    <style>
      .cls-1 {
        fill: #fff;
      }

      .cls-2 {
        font-size: 38px;
      }

      .cls-2, .cls-4 {
        fill: #231f20;
        font-family: FranklinGothic-Heavy, Franklin Gothic Heavy;
        font-weight: 800;
      }

      .cls-3 {
        letter-spacing: -0.02em;
      }

      .cls-4 {
        font-size: 40px;
      }
    </style>
  </defs>
  <path class="cls-1" d="M377.2,141.1a143.5,143.5,0,1,0,17.7,202.1A143.3,143.3,0,0,0,377.2,141.1ZM213.5,278.2c-6.8,6.8-27.3,26.3-31.7,19.8-8.7-12.9-16.8-41.3-12.6-67.4s21.1-51.3,34.9-59.2c6.8-3.9,19,21,23,29.5a4.9,4.9,0,0,1-.6,5.2c-4.1,5.4-12.4,19.3-14.6,32s.7,28.4,2.8,34.9A5.3,5.3,0,0,1,213.5,278.2Zm52.4-4.5a29.7,29.7,0,1,1,41.8-3.6A29.7,29.7,0,0,1,265.9,273.7Zm87.2-50.9c-2.6-6.3-10.5-20.4-20.4-28.7s-25-13.5-31.6-15a5.1,5.1,0,0,1-3.9-3.6c-2.4-9.3-9.1-36.8-1.3-37.4,15.5-1,44.2,6.2,64.7,22.8s33.8,43.9,33.8,59.9c0,7.8-27.7,6-37.1,5.1A4.9,4.9,0,0,1,353.1,222.8Zm-96.6,138c-6.7-3.9,8.6-26.9,14.1-34.7a4.9,4.9,0,0,1,4.8-2c6.7.9,22.8,1.1,35-3.3s24.2-14.9,28.8-19.9a5.2,5.2,0,0,1,5.1-1.5c9.3,2.5,36.4,10.4,33,17.5-6.9,14-27.4,35.2-52.1,44.6S270.3,368.8,256.5,360.8Z" transform="translate(-141.5 -107.5)"/>
  <text class="cls-2" transform="translate(239.6 185.4) rotate(-80)"><tspan class="cls-3">K</tspan><tspan x="24" y="0">G</tspan></text>
  <text class="cls-4" transform="translate(58.7 208) rotate(40)">20</text>
</svg>
