<svg id="Weight_Plate" data-name="Weight Plate" xmlns="http://www.w3.org/2000/svg" viewBox="0 0 287 287">
  <defs>
    <style>
      .cls-1 {
        fill: #fff;
      }

      .cls-2 {
        font-size: 38px;
      }

      .cls-2, .cls-4 {
        fill: #231f20;
        font-family: FranklinGothic-Heavy, Franklin Gothic Heavy;
        font-weight: 800;
      }

      .cls-3 {
        letter-spacing: -0.02em;
      }

      .cls-4 {
        font-size: 40px;
      }
    </style>
  </defs>
  <path class="cls-1" d="M285,107.5A143.5,143.5,0,1,0,428.5,251,143.4,143.4,0,0,0,285,107.5ZM247.7,317.8c-.9,9.6-4,37.7-11.5,35.5-15-4.3-39.4-20.8-53-43.5S166.4,257,171.9,242c2.6-7.3,28,3.8,36.6,7.8a5.1,5.1,0,0,1,2.9,4.4c.2,6.8,2.8,22.7,9.3,33.9s18.9,21.3,24.6,24.9A5.5,5.5,0,0,1,247.7,317.8ZM285,280.7A29.7,29.7,0,1,1,314.7,251,29.7,29.7,0,0,1,285,280.7Zm34.1-95.1c-6-3.1-21.2-8.8-34.1-8.8s-27.9,5.6-33.9,8.8a5.1,5.1,0,0,1-5.3-.3c-7.9-5.6-30.6-22.3-25-27.8,11.2-10.8,37.8-23.7,64.2-24.1s54.1,11.9,64.4,24.1c5,6-17.4,22.4-25.1,27.8A4.9,4.9,0,0,1,319.1,185.6Zm14.7,167.9c-7.7,1.3-10.7-26.2-11.5-35.7a4.8,4.8,0,0,1,2.3-4.6c5.7-3.6,18.2-13.9,24.7-25.1s9-27,9.3-33.7a5.1,5.1,0,0,1,2.9-4.5c8.7-4,34.7-15.4,36.5-7.8,3.8,15.1,1.7,44.6-11.2,67.7S349.4,350.7,333.8,353.5Z" transform="translate(-141.5 -107.5)"/>
  <text class="cls-2" transform="translate(244 113.8) rotate(-120)"><tspan class="cls-3">K</tspan><tspan x="24" y="0">G</tspan></text>
  <text class="cls-4" transform="translate(120 247.4)">20</text>
</svg>
