<svg id="Weight_Plate" data-name="Weight Plate" xmlns="http://www.w3.org/2000/svg" viewBox="0 0 287 287">
  <defs>
    <style>
      .cls-1 {
        fill: none;
      }

      .cls-2 {
        fill: #c1976b;
      }
    </style>
  </defs>
  <g>
    <path class="cls-1" d="M103.8,205.5c-5.7-3.6-18.1-13.7-24.6-24.9s-9.1-27.1-9.3-33.9a5.1,5.1,0,0,0-2.9-4.4c-8.6-4-34-15.1-36.6-7.8-5.5,15-2.3,45.1,11.3,67.8s38,39.2,53,43.5c7.5,2.2,10.6-25.9,11.5-35.5A5.5,5.5,0,0,0,103.8,205.5Z" transform="translate(0 0)"/>
    <path class="cls-1" d="M207.9,50c-10.3-12.2-38-24.5-64.4-24.1S90.5,39.2,79.3,50c-5.6,5.5,17.1,22.2,25,27.8a5.1,5.1,0,0,0,5.3.3c6-3.2,21-8.8,33.9-8.8s28.1,5.7,34.1,8.8a4.9,4.9,0,0,0,5.2-.3C190.5,72.4,212.9,56,207.9,50Z" transform="translate(0 0)"/>
    <path class="cls-1" d="M143.5,113.8a29.7,29.7,0,0,0,0,59.4h0a29.7,29.7,0,0,0,0-59.4Z" transform="translate(0 0)"/>
    <path class="cls-1" d="M256.5,134.6c-1.8-7.6-27.8,3.8-36.5,7.8a5.1,5.1,0,0,0-2.9,4.5c-.3,6.7-2.8,22.5-9.3,33.7s-19,21.5-24.7,25.1a4.8,4.8,0,0,0-2.3,4.6c.8,9.5,3.8,37,11.5,35.7h0c15.6-2.8,40.1-20.6,53-43.7S260.3,149.7,256.5,134.6Z" transform="translate(0 0)"/>
  </g>
  <g>
    <path class="cls-2" d="M155.1,222.8a5.3,5.3,0,0,0-5,3.1,16.7,16.7,0,0,0-1.6,8c0,3.5.5,6.3,1.7,8.3a5.3,5.3,0,0,0,5,3.1,5.2,5.2,0,0,0,5-3,16.2,16.2,0,0,0,1.7-7.7,19.5,19.5,0,0,0-1.7-8.5A5.4,5.4,0,0,0,155.1,222.8Z" transform="translate(0 0)"/>
    <path class="cls-2" d="M143.7,0h-.2A143.5,143.5,0,1,0,287,143.5C287.1,64.3,222.9.1,143.7,0Zm90.4,96.7-8.3,13.6,9.2,1.4,5.8-3.4,1.6,2.8-21.9,12.6-1.6-2.7,12.7-7.4L213.2,111l-1.7-2.9,11.1,1.5,9.8-15.9ZM221.3,73.8l1,1.7L220,77.9c2.7.2,4.8,1.7,6.4,4.3a9.3,9.3,0,0,1,.6,8.7,14.4,14.4,0,0,1-6.5,6.9,15.1,15.1,0,0,1-9.8,2.3,9.7,9.7,0,0,1-7.4-5c-2.3-4.1-1.7-7.9,1.8-11.6l2.2,2.2a7.3,7.3,0,0,0-2.4,4.2,7,7,0,0,0,.9,4,5.8,5.8,0,0,0,5.4,3.3,15.1,15.1,0,0,0,7.4-2.3,12.6,12.6,0,0,0,5.7-5.5,6.6,6.6,0,0,0-.3-6.1,5.9,5.9,0,0,0-3.8-3,6.1,6.1,0,0,0-5.1.9l-1.2.7,3.1,5.4-2.3,1.4L210,80.4ZM94.7,245.8c-15-4.3-39.4-20.8-53-43.5s-16.8-52.8-11.3-67.8c2.6-7.3,28,3.8,36.6,7.8a5.1,5.1,0,0,1,2.9,4.4c.2,6.8,2.8,22.7,9.3,33.9s18.9,21.3,24.6,24.9a5.5,5.5,0,0,1,2.4,4.8C105.3,219.9,102.2,248,94.7,245.8Zm46.3,1.6H122.1v-2.8c7.4-5.6,11.9-9.3,13.3-11a8.3,8.3,0,0,0,2.2-5.3,5,5,0,0,0-1.8-4,6.5,6.5,0,0,0-8.5.2,6,6,0,0,0-2.1,4.5l-3.1-1c1.3-5.2,4.5-7.8,9.5-7.8a9.7,9.7,0,0,1,6.7,2.3,7.3,7.3,0,0,1,2.6,5.8,8.8,8.8,0,0,1-1.2,4.4,22.1,22.1,0,0,1-4.6,5.2,103.9,103.9,0,0,1-8.8,6.7H141Zm21.6-3.6a8.1,8.1,0,0,1-7.4,4.1,8.3,8.3,0,0,1-7.3-4,16.3,16.3,0,0,1-2.8-9.9,17.9,17.9,0,0,1,2.6-9.8,8.9,8.9,0,0,1,15,.2,18.4,18.4,0,0,1,2.6,9.8A16.9,16.9,0,0,1,162.6,243.8Zm-19.1-70.6h0a29.7,29.7,0,1,1,29.7-29.7A29.7,29.7,0,0,1,143.5,173.2Zm34.1-95.1c-6-3.1-21.2-8.8-34.1-8.8s-27.9,5.6-33.9,8.8a5.1,5.1,0,0,1-5.3-.3c-7.9-5.6-30.6-22.3-25-27.8,11.2-10.8,37.8-23.7,64.2-24.1S197.6,37.8,207.9,50c5,6-17.4,22.4-25.1,27.8A4.9,4.9,0,0,1,177.6,78.1ZM192.3,246h0c-7.7,1.3-10.7-26.2-11.5-35.7a4.8,4.8,0,0,1,2.3-4.6c5.7-3.6,18.2-13.9,24.7-25.1s9-27,9.3-33.7a5.1,5.1,0,0,1,2.9-4.5c8.7-4,34.7-15.4,36.5-7.8,3.8,15.1,1.7,44.6-11.2,67.7S207.9,243.2,192.3,246Z" transform="translate(0 0)"/>
  </g>
</svg>
