<svg id="Layer_1" data-name="Layer 1" xmlns="http://www.w3.org/2000/svg" xmlns:xlink="http://www.w3.org/1999/xlink" viewBox="0 0 224.2 293.6">
  <defs>
    <style>
      .cls-1 {
        fill: url(#linear-gradient);
      }

      .cls-2 {
        fill: url(#linear-gradient-2);
      }

      .cls-3 {
        fill: url(#linear-gradient-3);
      }

      .cls-4 {
        fill: url(#Revolution_Logo);
      }

      .cls-5 {
        fill: url(#Revolution_Logo-2);
      }

      .cls-6 {
        fill: url(#linear-gradient-4);
      }

      .cls-7 {
        fill: url(#linear-gradient-5);
      }

      .cls-8 {
        fill: url(#linear-gradient-6);
      }

      .cls-9 {
        fill: url(#linear-gradient-7);
      }

      .cls-10 {
        fill: url(#linear-gradient-8);
      }

      .cls-11 {
        fill: url(#linear-gradient-9);
      }

      .cls-12 {
        fill: url(#linear-gradient-10);
      }

      .cls-13 {
        fill: url(#linear-gradient-11);
      }

      .cls-14 {
        opacity: 0.6;
      }

      .cls-15 {
        fill: url(#linear-gradient-12);
      }
    </style>
    <linearGradient id="linear-gradient" x1="323.02" y1="767" x2="424.07" y2="819.37" gradientTransform="matrix(-1.46, 0.16, 0.14, 1.23, 884.03, -609.47)" gradientUnits="userSpaceOnUse">
      <stop offset="0" stop-color="#c63003"/>
      <stop offset="0.24" stop-color="#d83500"/>
      <stop offset="0.27" stop-color="#db3600"/>
      <stop offset="0.43" stop-color="#ee4700"/>
      <stop offset="0.54" stop-color="#f64e00"/>
      <stop offset="0.62" stop-color="#f75500"/>
      <stop offset="0.74" stop-color="#f96a01"/>
      <stop offset="0.88" stop-color="#fd8b03"/>
      <stop offset="0.89" stop-color="#fd8e03"/>
      <stop offset="0.94" stop-color="#fea00a"/>
      <stop offset="1" stop-color="#ffbc15"/>
    </linearGradient>
    <linearGradient id="linear-gradient-2" x1="322.69" y1="774.63" x2="407.97" y2="818.83" xlink:href="#linear-gradient"/>
    <linearGradient id="linear-gradient-3" x1="441.07" y1="835.21" x2="441.07" y2="835.21" gradientTransform="matrix(-1.45, 0.23, 0.19, 1.22, 836.57, -630.57)" xlink:href="#linear-gradient"/>
    <linearGradient id="Revolution_Logo" data-name="Revolution Logo" x1="389.18" y1="281.24" x2="472.57" y2="228.3" gradientTransform="matrix(0.96, 0.28, -0.28, 0.96, 131.68, -89.27)" gradientUnits="userSpaceOnUse">
      <stop offset="0" stop-color="#c63003"/>
      <stop offset="0.56" stop-color="#db3600"/>
      <stop offset="0.75" stop-color="#f64e00"/>
      <stop offset="0.91" stop-color="#fd8e03"/>
      <stop offset="1" stop-color="#ffbc15"/>
    </linearGradient>
    <linearGradient id="Revolution_Logo-2" x1="532.32" y1="339.54" x2="621.38" y2="283.01" gradientTransform="matrix(0.96, -0.26, 0.26, 0.96, -156.75, 126.85)" xlink:href="#Revolution_Logo"/>
    <linearGradient id="linear-gradient-4" x1="464.27" y1="359.45" x2="520.35" y2="303.76" gradientTransform="matrix(1, 0, 0, 1, 0, 0)" xlink:href="#linear-gradient"/>
    <linearGradient id="linear-gradient-5" x1="449.01" y1="319.17" x2="549.09" y2="296.7" gradientTransform="translate(-32.1 68.3) rotate(-6.4)" xlink:href="#linear-gradient"/>
    <linearGradient id="linear-gradient-6" x1="442.95" y1="318.58" x2="557.82" y2="292.48" gradientTransform="matrix(1, 0, 0, 1, 0, 0)" xlink:href="#linear-gradient"/>
    <linearGradient id="linear-gradient-7" x1="441.11" y1="305.87" x2="568.76" y2="276.86" gradientTransform="matrix(1, 0, 0, 1, 0, 0)" xlink:href="#linear-gradient"/>
    <linearGradient id="linear-gradient-8" x1="460.8" y1="347.52" x2="460.82" y2="347.52" gradientTransform="translate(-5.9 8.3) rotate(-1)" xlink:href="#linear-gradient"/>
    <linearGradient id="linear-gradient-9" x1="452.97" y1="344.86" x2="452.99" y2="344.85" gradientTransform="matrix(1, 0, 0, 1, 0, 0)" xlink:href="#linear-gradient"/>
    <linearGradient id="linear-gradient-10" x1="563.35" y1="256.68" x2="584.24" y2="252.26" gradientTransform="translate(-83.6 695.6) rotate(-59.4)" xlink:href="#linear-gradient"/>
    <linearGradient id="linear-gradient-11" x1="404.69" y1="326.96" x2="592.62" y2="287.2" gradientTransform="matrix(1, 0, 0, 1, 0, 0)" xlink:href="#linear-gradient"/>
    <linearGradient id="linear-gradient-12" x1="480.2" y1="382.46" x2="396.97" y2="435.4" gradientTransform="matrix(1, 0, 0, 1, 0, 0)" xlink:href="#linear-gradient"/>
  </defs>
  <g id="Logo_1" data-name="Logo 1">
    <g>
      <path id="Part_1" data-name="Part 1" class="cls-1" d="M473.7,399.7c-1.2.9-5.8,3.6-7.1,4.3-28.6,14.2-63.4,6.3-84.1,37.7l-1.7,2.7c24-22.1,45.8-17.6,61.6-18.7a95.6,95.6,0,0,0-13,2.3c-4.2,1-8.4,2.1-12.5,3.4a96.4,96.4,0,0,0-23,10.7,87.4,87.4,0,0,0-19.6,17.7,112.1,112.1,0,0,0-15.6,26.8c-1.2,2.8-2.3,5.7-3.3,8.5a93.2,93.2,0,0,0-3,10.3c10.3-19.1,19.3-24.1,27-28.6-3,6-3.7,7.9-4.8,14.4,11.9-24.2,40-29.5,55-36.3s44.3-22.3,50.2-61.6C479.8,393.3,476.2,397.9,473.7,399.7Z" transform="translate(-352.4 -211.7)"/>
      <path id="Part_1-2" data-name="Part 1" class="cls-2" d="M482.3,395.4c-6,39.2-35.5,54.3-50.3,61.1s-43,12.1-55,36.3c0,0,10.3-16.4,37.8-25.8s45-17.9,54.2-31.9S482,412.1,482.3,395.4Z" transform="translate(-352.4 -211.7)"/>
      <path id="Part_1-3" data-name="Part 1" class="cls-3" d="M355.8,490" transform="translate(-352.4 -211.7)"/>
    </g>
    <g id="Wing_2" data-name="Wing 2">
      <path class="cls-4" d="M454.7,289.1c-4.1,12.4-.3,31.1-13,42.3-3.2,3,7.9-3.2,6.8-1,7.4-9.1,6-32.3,18.7-47.4,7.5-9,28.3-13.9,36.2-40.7h.1a36.2,36.2,0,0,0,.9-4.1,41.6,41.6,0,0,0,.6-4.4c.2-1.3.3-2.9.4-4.6.2-3.7.7-7.7,2.4-10.5a13.2,13.2,0,0,1,2.2-2.5c-1.2.7-2.4,1-3.8,2.9-4.2,6-5.2,13.4-9.3,23.5a62.3,62.3,0,0,1-10.1,17.2c4.9-8.3.3-17.4.3-17.4l-1.1-2a14.9,14.9,0,0,1-.4,11.9,32.6,32.6,0,0,1-5.4,7.9,112.8,112.8,0,0,1-12.9,12.1,13.4,13.4,0,0,1,1.9-6.1S459.4,276.6,454.7,289.1Z" transform="translate(-352.4 -211.7)"/>
      <path class="cls-5" d="M452.7,319.1s5.1-28.3,25.6-40.3c22.1-12.9,29.3-30.3,30.6-51.2,0,0,8.3,30.6-15.6,50.6C484.9,285.6,462.2,299.1,452.7,319.1Z" transform="translate(-352.4 -211.7)"/>
    </g>
    <g id="Wing_1" data-name="Wing 1">
      <path class="cls-6" d="M490.4,331.7c8-1,26.8-2.5,41.2-16.6-2.5,5.5-4.1,7.1-7.5,11.1-5.3,6.2-12.1,9.9-27.1,12.7s-30.4-.6-43.6,7.4l1-1.1-2.7,1.6c.1-.2,1.4-2.6,1.6-2.8S462.7,335.1,490.4,331.7Z" transform="translate(-352.4 -211.7)"/>
      <path id="Feather_3a" data-name="Feather 3a" class="cls-7" d="M543.5,292.5c-8.7,18.5-21.9,27.4-34.7,31.3-17.8,5.4-41.2,7.3-55.8,20.7-.1-1.9-1.2-6,4.7-9.5,7.9-4.8,20.5-13.9,40.8-19.4C515.9,310.9,525.3,309.4,543.5,292.5Z" transform="translate(-352.4 -211.7)"/>
      <path id="Feather_2" data-name="Feather 2" class="cls-8" d="M447.7,339.5c15.2-6.2,25.1-20,47.6-26.2,19.9-5.5,45.3-11.8,57.8-41.7-23.2,24.6-40.1,22.7-57.1,29.2C466.8,311.8,463.5,324.7,447.7,339.5Z" transform="translate(-352.4 -211.7)"/>
      <path id="Feather_1" data-name="Feather 1" class="cls-9" d="M448.5,338.5c10-8.8,15.3-18.8,21.1-24.6,12.1-11.8,21.3-15.3,38.8-20.2,24.4-7,46-19.6,52.9-49.5-9.4,17.6-26.1,24.6-59.6,35.1C470,289.3,464.5,314.4,448.5,338.5Z" transform="translate(-352.4 -211.7)"/>
    </g>
    <g id="Head_Torso" data-name="Head &amp; Torso">
      <path class="cls-10" d="M461.1,347.4h0Z" transform="translate(-352.4 -211.7)"/>
      <path class="cls-11" d="M453,344.8h0Z" transform="translate(-352.4 -211.7)"/>
    </g>
    <path class="cls-12" d="M415.9,338.8a28.9,28.9,0,0,1,8.9-4.2c5.1-1.3,10.7-4,14.5-10.5a29.1,29.1,0,0,1-11.5,6.9A34.5,34.5,0,0,0,415.9,338.8Z" transform="translate(-352.4 -211.7)"/>
    <path class="cls-13" d="M569.9,214.4c-8.3,5.9-11.8,14-20.9,24.7a89.9,89.9,0,0,1-20.5,17.5,16.2,16.2,0,0,0,4.8-19.2l-1.2-2.4c1.5,4.4,0,9.2-3.6,13.1a45.7,45.7,0,0,1-10.7,7.9A194,194,0,0,1,494,267.6a15.6,15.6,0,0,1,4.5-6.5c-1.4.8-18.8,10.6-29,23.3-7.7,10.4-12.5,25.9-15.9,32.8s-7.6,12.3-14.3,15.6c-1.4.7-5.4,1.4-7.9,1.8a15.2,15.2,0,0,0,6.4-6.2,28.3,28.3,0,0,1-11.7,6,25.4,25.4,0,0,0-7.9,2.7l-1.1.7h0a11.5,11.5,0,0,0-2.3,2.1,9.5,9.5,0,0,1-1.9,1.6c-3.4,1.4-5.7,3.5-2.9,7.4.6-2,8-2.3,13.3-2h.1a48.8,48.8,0,0,1,44.5,45.5,16.6,16.6,0,0,0,1.1-6.2,48.8,48.8,0,0,0-4.1-17.9l1.2,1.8a28.4,28.4,0,0,1,2.7,5.2,19.6,19.6,0,0,1,1.2,3.4,36.4,36.4,0,0,1,.9,5.9c3-5.3,1.5-17.9-5.5-27.2a50.7,50.7,0,0,1,13,15c-2.5-9.6-5.2-14.4-8.5-17.3a41.8,41.8,0,0,0,20.8,0,43.3,43.3,0,0,1-19.6-5.1,44,44,0,0,0-14.1-4.2,67.1,67.1,0,0,1,14.1,1.1c9.5,1.7,21.1,2.9,33-4.3a54.4,54.4,0,0,1-25,1c-4.6-.8-15-1.8-24.3,1.9a13.6,13.6,0,0,1-1.2-1.7c.7-4.5,8.1-11,8.1-11-5.1,2.7-6.4,3.6-10.7,4.8-.1,0,.8-1.6.7-1.7,4.3-5.8,5-12.5,7.3-17.6,11.6-24.5,22.6-34.4,34.3-40.1s51.3-12.6,66-39.3c3.5-6.2,6.7-15.5,9.5-19.6.7-1,2.1-4.1,7.9-7.6C574.7,212.3,572.6,212.5,569.9,214.4ZM417.3,341.5c.3-1.8,2.1-2.2,4.1-3C419.5,341.4,419.5,341.4,417.3,341.5Z" transform="translate(-352.4 -211.7)"/>
    <path class="cls-15" d="M478,401.6c5.4-14.1-2.6-26.7-2.6-26.7,1.1,14.4-5.7,21.8-19.9,22.7a133,133,0,0,0-24.1,3.6h0c-10.3,2.2-28.6,8.8-40.3,25A62.4,62.4,0,0,1,408.8,416a102.2,102.2,0,0,1,19.6-4.9c9.1-1.6,18.2-3.2,27.3-5.5s16.7-4.8,22.7-10.6l.9-.8.3-.3-.2.6Z" transform="translate(-352.4 -211.7)"/>
  </g>
</svg>
