<svg id="Layer_1" data-name="Layer 1" xmlns="http://www.w3.org/2000/svg" viewBox="0 0 32 23.3">
  <defs>
    <style>
      .cls-1 {
        fill: none;
      }

      .cls-2 {
        fill: #fff;
      }
    </style>
  </defs>
  <g>
    <path class="cls-1" d="M8.6,13.1c2.2-.1,2.2-.1,4.1-3C10.7,10.9,8.9,11.3,8.6,13.1Z" transform="translate(0 0)"/>
    <path class="cls-2" d="M30.6,4.4c-1.4.7-5.4,1.4-7.9,1.8A15.3,15.3,0,0,0,29.1,0,29,29,0,0,1,17.4,6l-2.8.7a18.7,18.7,0,0,0-5.1,2l-1.1.7h0l-1.1.9L6.1,11.5a9.5,9.5,0,0,1-1.9,1.6c-3.4,1.4-5.7,3.5-2.9,7.4.6-2,8-2.3,13.3-2h.1A47.5,47.5,0,0,1,32,23.3V3.6Zm-22,8.7c.3-1.8,2.1-2.2,4.1-3C10.8,13,10.8,13,8.6,13.1Z" transform="translate(0 0)"/>
  </g>
</svg>
