<svg id="Layer_1" data-name="Layer 1" xmlns="http://www.w3.org/2000/svg" xmlns:xlink="http://www.w3.org/1999/xlink" viewBox="0 0 32 27.6">
  <defs>
    <style>
      .cls-1 {
        opacity: 0.6;
      }

      .cls-2 {
        fill: none;
      }

      .cls-3 {
        fill: url(#linear-gradient);
      }
    </style>
    <linearGradient id="linear-gradient" x1="374.56" y1="337.9" x2="1142.21" y2="337.9" gradientUnits="userSpaceOnUse">
      <stop offset="0" stop-color="#c63003"/>
      <stop offset="0.09" stop-color="#db3600"/>
      <stop offset="0.19" stop-color="#e33d00"/>
      <stop offset="0.25" stop-color="#f64e00"/>
      <stop offset="0.48" stop-color="#fc8603"/>
      <stop offset="0.61" stop-color="#fd8e03"/>
      <stop offset="0.77" stop-color="#ffbc15"/>
    </linearGradient>
  </defs>
  <g>
    <path class="cls-2" d="M417.3,341.5c2.2-.1,2.2-.1,4.1-3C419.4,339.3,417.6,339.7,417.3,341.5Z" transform="translate(-408.7 -324.1)"/>
    <path class="cls-3" d="M439.3,332.8c-1.4.7-5.4,1.4-7.9,1.8a15.2,15.2,0,0,0,6.4-6.2,28.3,28.3,0,0,1-11.7,6l-2.8.7,1.5-.5c5.1-1.3,10.7-4,14.5-10.5a29.1,29.1,0,0,1-11.5,6.9,35.3,35.3,0,0,0-11.8,7.7l-1.2,1.2a9.5,9.5,0,0,1-1.9,1.6c-3.4,1.4-5.7,3.5-2.9,7.4.6-2,8-2.3,13.3-2h.1a47.9,47.9,0,0,1,17.3,4.8V332Zm-22,8.7c.3-1.8,2.1-2.2,4.1-3C419.5,341.4,419.5,341.4,417.3,341.5Z" transform="translate(-408.7 -324.1)"/>
  </g>
</svg>
