<svg id="Layer_1" data-name="Layer 1" xmlns="http://www.w3.org/2000/svg" xmlns:xlink="http://www.w3.org/1999/xlink" viewBox="0 0 32 23.3">
  <defs>
    <style>
      .cls-1 {
        opacity: 0.6;
      }

      .cls-2 {
        fill: none;
      }

      .cls-3 {
        fill: url(#linear-gradient);
      }
    </style>
    <linearGradient id="linear-gradient" x1="373.05" y1="354.05" x2="1176.32" y2="184.11" gradientUnits="userSpaceOnUse">
      <stop offset="0" stop-color="#c63003"/>
      <stop offset="0.24" stop-color="#d83500"/>
      <stop offset="0.27" stop-color="#db3600"/>
      <stop offset="0.43" stop-color="#ee4700"/>
      <stop offset="0.54" stop-color="#f64e00"/>
      <stop offset="0.62" stop-color="#f75500"/>
      <stop offset="0.74" stop-color="#f96a01"/>
      <stop offset="0.88" stop-color="#fd8b03"/>
      <stop offset="0.89" stop-color="#fd8e03"/>
      <stop offset="0.94" stop-color="#fea00a"/>
      <stop offset="1" stop-color="#ffbc15"/>
    </linearGradient>
  </defs>
  <g>
    <path class="cls-2" d="M417.3,341.5c2.2-.1,2.2-.1,4.1-3C419.4,339.3,417.6,339.7,417.3,341.5Z" transform="translate(-408.7 -328.4)"/>
    <path class="cls-3" d="M439.3,332.8c-1.4.7-5.4,1.4-7.9,1.8a15.2,15.2,0,0,0,6.4-6.2,28.3,28.3,0,0,1-11.7,6l-2.8.7a19.7,19.7,0,0,0-5.1,2l-1.1.7h0l-1.1.9-1.2,1.2a9.5,9.5,0,0,1-1.9,1.6c-3.4,1.4-5.7,3.5-2.9,7.4.6-2,8-2.3,13.3-2h.1a47.9,47.9,0,0,1,17.3,4.8V332Zm-22,8.7c.3-1.8,2.1-2.2,4.1-3C419.5,341.4,419.5,341.4,417.3,341.5Z" transform="translate(-408.7 -328.4)"/>
  </g>
</svg>
