<?xml version="1.0" encoding="utf-8"?>
<!-- Generator: Adobe Illustrator 16.0.0, SVG Export Plug-In . SVG Version: 6.00 Build 0)  -->
<!DOCTYPE svg PUBLIC "-//W3C//DTD SVG 1.1//EN" "http://www.w3.org/Graphics/SVG/1.1/DTD/svg11.dtd" [
	<!ENTITY ns_flows "http://ns.adobe.com/Flows/1.0/">
	<!ENTITY ns_extend "http://ns.adobe.com/Extensibility/1.0/">
	<!ENTITY ns_ai "http://ns.adobe.com/AdobeIllustrator/10.0/">
	<!ENTITY ns_graphs "http://ns.adobe.com/Graphs/1.0/">
	<!ENTITY ns_vars "http://ns.adobe.com/Variables/1.0/">
	<!ENTITY ns_imrep "http://ns.adobe.com/ImageReplacement/1.0/">
	<!ENTITY ns_sfw "http://ns.adobe.com/SaveForWeb/1.0/">
	<!ENTITY ns_custom "http://ns.adobe.com/GenericCustomNamespace/1.0/">
	<!ENTITY ns_adobe_xpath "http://ns.adobe.com/XPath/1.0/">
]>
<svg version="1.1" xmlns:x="&ns_extend;" xmlns:i="&ns_ai;" xmlns:graph="&ns_graphs;"
	 xmlns="http://www.w3.org/2000/svg" xmlns:xlink="http://www.w3.org/1999/xlink" xmlns:a="http://ns.adobe.com/AdobeSVGViewerExtensions/3.0/"
	 x="0px" y="0px" width="1125px" height="750px" viewBox="0 0 1125 750" enable-background="new 0 0 1125 750" xml:space="preserve"
	>
<metadata>
	<sfw  xmlns="&ns_sfw;">
		<slices></slices>
		<sliceSourceBounds  width="2091.354" height="1366.464" bottomLeftOrigin="true" x="73.191" y="-666.615"></sliceSourceBounds>
	</sfw>
</metadata>
<g id="N-DIMS">
	<g>
		<g id="LINE_14_">
			
				<line fill="none" stroke="#FF6B6B" stroke-width="2.9717" stroke-linecap="round" stroke-linejoin="round" stroke-miterlimit="10" x1="554.277" y1="650.282" x2="665.333" y2="650.282"/>
		</g>
		<g id="LINE_6_">
			
				<line fill="none" stroke="#FF6B6B" stroke-width="2.9717" stroke-linecap="round" stroke-linejoin="round" stroke-miterlimit="10" x1="843.613" y1="650.282" x2="954.173" y2="650.282"/>
		</g>
		<g id="MTEXT_5_">
			<g>
				<g>
					<path fill="#FF6B6B" d="M677.697,659.193c-0.116-0.116-0.174-0.263-0.174-0.441v-0.803c0-0.409,0.223-0.802,0.669-1.177
						l5.83-5.804c1.319-1.123,2.229-2.041,2.728-2.754s0.749-1.472,0.749-2.273c0-1.052-0.294-1.877-0.882-2.475
						c-0.589-0.597-1.444-0.896-2.568-0.896c-1.069,0-1.916,0.312-2.54,0.937c-0.625,0.624-1.008,1.462-1.15,2.514
						c-0.036,0.196-0.125,0.348-0.268,0.454c-0.143,0.107-0.285,0.161-0.428,0.161h-1.284c-0.16,0-0.294-0.054-0.4-0.161
						c-0.107-0.106-0.161-0.231-0.161-0.374c0.036-0.944,0.29-1.858,0.763-2.741c0.472-0.883,1.172-1.604,2.1-2.166
						c0.927-0.562,2.05-0.843,3.369-0.843c1.997,0,3.499,0.521,4.507,1.564c1.007,1.043,1.511,2.367,1.511,3.972
						c0,1.123-0.271,2.136-0.815,3.035c-0.544,0.901-1.396,1.851-2.554,2.849l-5.27,5.349h8.425c0.196,0,0.348,0.054,0.455,0.161
						c0.107,0.106,0.16,0.259,0.16,0.454v1.017c0,0.179-0.058,0.325-0.174,0.441s-0.263,0.174-0.441,0.174h-11.714
						C677.96,659.367,677.813,659.31,677.697,659.193z"/>
					<path fill="#FF6B6B" d="M696.633,659.193c-0.099-0.116-0.147-0.254-0.147-0.415c0-0.124,0.036-0.24,0.107-0.348l4.118-5.723
						c-0.428,0.106-0.927,0.16-1.497,0.16c-1.284-0.018-2.407-0.316-3.37-0.896c-0.963-0.579-1.698-1.337-2.206-2.272
						c-0.509-0.937-0.763-1.939-0.763-3.009c0-1.07,0.254-2.087,0.763-3.05c0.508-0.962,1.266-1.747,2.273-2.354
						c1.007-0.605,2.224-0.909,3.65-0.909c1.426,0,2.647,0.294,3.664,0.883s1.782,1.359,2.3,2.313
						c0.517,0.954,0.775,1.975,0.775,3.062c0,0.98-0.174,1.845-0.521,2.594s-0.807,1.524-1.377,2.327l-5.188,7.274
						c-0.125,0.161-0.245,0.29-0.361,0.388c-0.116,0.099-0.28,0.147-0.495,0.147h-1.337
						C696.86,659.367,696.73,659.31,696.633,659.193z M701.674,650.247c0.643-0.339,1.15-0.815,1.524-1.431
						c0.375-0.615,0.562-1.324,0.562-2.126c0-0.82-0.188-1.542-0.562-2.167c-0.374-0.624-0.882-1.105-1.524-1.444
						c-0.642-0.338-1.346-0.508-2.112-0.508c-0.749,0-1.44,0.17-2.073,0.508c-0.633,0.339-1.137,0.82-1.511,1.444
						c-0.374,0.625-0.562,1.347-0.562,2.167c0,0.802,0.188,1.511,0.562,2.126s0.873,1.092,1.498,1.431
						c0.624,0.339,1.319,0.508,2.086,0.508S701.032,650.586,701.674,650.247z"/>
					<path fill="#FF6B6B" d="M707.893,659.193c-0.116-0.116-0.174-0.263-0.174-0.441v-1.846c0-0.178,0.058-0.329,0.174-0.454
						s0.263-0.188,0.441-0.188h1.846c0.178,0,0.325,0.062,0.441,0.188c0.115,0.125,0.174,0.276,0.174,0.454v1.846
						c0,0.179-0.059,0.325-0.174,0.441c-0.116,0.116-0.264,0.174-0.441,0.174h-1.846
						C708.155,659.367,708.009,659.31,707.893,659.193z"/>
					<path fill="#FF6B6B" d="M716.892,658.912c-0.98-0.481-1.729-1.109-2.246-1.885c-0.518-0.776-0.794-1.609-0.829-2.501v-0.054
						c0-0.143,0.054-0.258,0.16-0.348c0.107-0.089,0.231-0.134,0.375-0.134h1.311c0.374,0,0.614,0.196,0.722,0.589
						c0.268,0.963,0.762,1.681,1.484,2.152c0.722,0.473,1.556,0.709,2.501,0.709c1.212,0,2.22-0.37,3.021-1.109
						c0.803-0.74,1.204-1.761,1.204-3.062c0-1.194-0.401-2.144-1.204-2.849c-0.802-0.704-1.81-1.057-3.021-1.057
						c-0.643,0-1.159,0.08-1.552,0.241c-0.393,0.16-0.793,0.393-1.203,0.695c-0.232,0.179-0.424,0.308-0.575,0.388
						s-0.316,0.12-0.495,0.12h-1.283c-0.161,0-0.304-0.058-0.428-0.174c-0.125-0.115-0.179-0.254-0.161-0.414l0.829-8.906
						c0.054-0.445,0.276-0.669,0.669-0.669h9.254c0.195,0,0.348,0.054,0.454,0.16c0.107,0.107,0.161,0.259,0.161,0.455v0.989
						c0,0.179-0.059,0.321-0.174,0.429c-0.116,0.106-0.264,0.16-0.441,0.16h-7.703l-0.481,5.376c0.856-0.606,2.006-0.91,3.45-0.91
						c1.194,0,2.282,0.237,3.263,0.709c0.98,0.473,1.761,1.164,2.341,2.073c0.579,0.909,0.869,1.988,0.869,3.236
						c0,1.319-0.29,2.456-0.869,3.409c-0.58,0.954-1.382,1.677-2.407,2.167s-2.197,0.735-3.517,0.735
						C719.031,659.635,717.872,659.394,716.892,658.912z"/>
					<path fill="#FF6B6B" d="M730.037,645.299c-0.08-0.106-0.103-0.24-0.067-0.4l0.589-3.745c0.071-0.517,0.321-0.775,0.749-0.775
						h1.712c0.124,0,0.227,0.045,0.308,0.134c0.08,0.09,0.12,0.196,0.12,0.321c0,0.179-0.027,0.32-0.08,0.428l-1.392,3.61
						c-0.089,0.196-0.187,0.344-0.294,0.441c-0.106,0.099-0.268,0.147-0.481,0.147h-0.829
						C730.229,645.46,730.117,645.406,730.037,645.299z M734.236,645.299c-0.08-0.106-0.104-0.24-0.067-0.4l0.589-3.745
						c0.07-0.517,0.32-0.775,0.749-0.775h1.711c0.125,0,0.228,0.045,0.308,0.134c0.08,0.09,0.121,0.196,0.121,0.321
						c0,0.179-0.027,0.32-0.081,0.428l-1.391,3.61c-0.089,0.196-0.187,0.344-0.294,0.441c-0.107,0.099-0.268,0.147-0.481,0.147
						h-0.829C734.428,645.46,734.316,645.406,734.236,645.299z"/>
					<path fill="#FF6B6B" d="M747.434,664.756c-0.106-0.115-0.16-0.263-0.16-0.44v-28.297c0-0.178,0.054-0.325,0.16-0.441
						c0.107-0.115,0.25-0.174,0.429-0.174h0.989c0.178,0,0.325,0.059,0.441,0.174c0.115,0.116,0.174,0.264,0.174,0.441v28.297
						c0,0.178-0.059,0.325-0.174,0.44c-0.116,0.116-0.264,0.174-0.441,0.174h-0.989C747.684,664.93,747.541,664.872,747.434,664.756
						z"/>
					<path fill="#FF6B6B" d="M761.648,659.193c-0.099-0.116-0.147-0.254-0.147-0.415l0.054-0.24l6.687-15.646h-8.826
						c-0.179,0-0.325-0.058-0.441-0.174s-0.174-0.264-0.174-0.441v-0.99c0-0.195,0.054-0.352,0.161-0.468
						c0.106-0.115,0.258-0.174,0.454-0.174h10.912c0.196,0,0.348,0.059,0.455,0.174c0.106,0.116,0.16,0.272,0.16,0.468v0.91
						c0,0.32-0.071,0.668-0.214,1.043l-6.606,15.458c-0.089,0.196-0.187,0.357-0.294,0.481c-0.107,0.125-0.259,0.188-0.455,0.188
						h-1.337C761.876,659.367,761.746,659.31,761.648,659.193z"/>
					<path fill="#FF6B6B" d="M775.971,658.912c-0.98-0.481-1.729-1.109-2.246-1.885c-0.518-0.776-0.794-1.609-0.829-2.501v-0.054
						c0-0.143,0.054-0.258,0.16-0.348c0.107-0.089,0.231-0.134,0.375-0.134h1.311c0.374,0,0.614,0.196,0.722,0.589
						c0.268,0.963,0.762,1.681,1.484,2.152c0.722,0.473,1.556,0.709,2.501,0.709c1.212,0,2.22-0.37,3.021-1.109
						c0.803-0.74,1.204-1.761,1.204-3.062c0-1.194-0.401-2.144-1.204-2.849c-0.802-0.704-1.81-1.057-3.021-1.057
						c-0.643,0-1.159,0.08-1.552,0.241c-0.393,0.16-0.793,0.393-1.203,0.695c-0.232,0.179-0.424,0.308-0.575,0.388
						s-0.316,0.12-0.495,0.12h-1.283c-0.161,0-0.304-0.058-0.428-0.174c-0.125-0.115-0.179-0.254-0.161-0.414l0.829-8.906
						c0.054-0.445,0.276-0.669,0.669-0.669h9.254c0.195,0,0.348,0.054,0.454,0.16c0.107,0.107,0.161,0.259,0.161,0.455v0.989
						c0,0.179-0.059,0.321-0.174,0.429c-0.116,0.106-0.264,0.16-0.441,0.16H776.8l-0.481,5.376c0.856-0.606,2.006-0.91,3.45-0.91
						c1.194,0,2.282,0.237,3.263,0.709c0.98,0.473,1.761,1.164,2.341,2.073c0.579,0.909,0.869,1.988,0.869,3.236
						c0,1.319-0.29,2.456-0.869,3.409c-0.58,0.954-1.382,1.677-2.407,2.167s-2.197,0.735-3.517,0.735
						C778.11,659.635,776.951,659.394,775.971,658.912z"/>
					<path fill="#FF6B6B" d="M797.179,658.017c-1.07-1.079-1.632-2.59-1.685-4.533l-0.027-1.07l0.027-1.069
						c0.053-1.943,0.614-3.454,1.685-4.533c1.069-1.079,2.559-1.618,4.467-1.618c1.283,0,2.366,0.228,3.249,0.682
						c0.883,0.455,1.542,1.021,1.979,1.698c0.437,0.678,0.673,1.355,0.708,2.033c0.018,0.16-0.04,0.303-0.174,0.428
						s-0.28,0.188-0.44,0.188h-1.177c-0.179,0-0.312-0.04-0.401-0.121c-0.09-0.08-0.179-0.227-0.268-0.44
						c-0.321-0.874-0.763-1.493-1.324-1.859c-0.562-0.365-1.271-0.548-2.126-0.548c-1.123,0-2.016,0.348-2.675,1.043
						s-1.016,1.756-1.069,3.183l-0.027,0.936l0.027,0.937c0.054,1.427,0.41,2.487,1.069,3.183s1.552,1.043,2.675,1.043
						c0.873,0,1.587-0.183,2.14-0.548s0.989-0.985,1.311-1.859c0.089-0.214,0.178-0.36,0.268-0.441
						c0.089-0.08,0.223-0.12,0.401-0.12h1.177c0.16,0,0.307,0.062,0.44,0.188s0.191,0.268,0.174,0.428
						c-0.035,0.66-0.271,1.328-0.708,2.006c-0.438,0.678-1.097,1.248-1.979,1.712c-0.883,0.463-1.966,0.695-3.249,0.695
						C799.737,659.635,798.248,659.096,797.179,658.017z"/>
					<path fill="#FF6B6B" d="M810.966,659.193c-0.116-0.116-0.174-0.263-0.174-0.441v-12.677c0-0.179,0.058-0.325,0.174-0.441
						s0.263-0.174,0.441-0.174h1.123c0.178,0,0.321,0.058,0.428,0.174c0.107,0.116,0.161,0.263,0.161,0.441v0.909
						c0.963-1.194,2.264-1.792,3.904-1.792c1.961,0,3.353,0.82,4.173,2.46c0.428-0.748,1.038-1.346,1.832-1.791
						c0.793-0.446,1.68-0.669,2.661-0.669c1.461,0,2.656,0.499,3.583,1.498c0.928,0.998,1.392,2.442,1.392,4.332v7.729
						c0,0.179-0.059,0.325-0.174,0.441c-0.116,0.116-0.264,0.174-0.441,0.174h-1.15c-0.179,0-0.325-0.058-0.441-0.174
						s-0.174-0.263-0.174-0.441v-7.488c0-1.427-0.294-2.447-0.883-3.062c-0.588-0.615-1.363-0.923-2.326-0.923
						c-0.856,0-1.592,0.316-2.207,0.949c-0.615,0.634-0.923,1.646-0.923,3.036v7.488c0,0.179-0.058,0.325-0.174,0.441
						s-0.263,0.174-0.44,0.174h-1.178c-0.178,0-0.325-0.058-0.44-0.174c-0.116-0.116-0.174-0.263-0.174-0.441v-7.488
						c0-1.408-0.308-2.425-0.923-3.049s-1.378-0.937-2.287-0.937c-0.855,0-1.591,0.312-2.206,0.937s-0.923,1.631-0.923,3.021v7.516
						c0,0.179-0.059,0.325-0.174,0.441c-0.116,0.116-0.264,0.174-0.441,0.174h-1.177
						C811.229,659.367,811.082,659.31,810.966,659.193z"/>
				</g>
			</g>
		</g>
		<g id="POLYLINE_176_">
			
				<polyline fill="none" stroke="#FF6B6B" stroke-width="2.9717" stroke-linecap="round" stroke-linejoin="round" stroke-miterlimit="10" points="
				942.916,639.026 954.173,650.282 942.916,661.538 			"/>
		</g>
		<g id="POLYLINE_175_">
			
				<polyline fill="none" stroke="#FF6B6B" stroke-width="2.9717" stroke-linecap="round" stroke-linejoin="round" stroke-miterlimit="10" points="
				565.533,639.026 554.277,650.282 565.533,661.538 			"/>
		</g>
	</g>
	<g>
		<g id="LINE_5_">
			
				<line fill="none" stroke="#FF6B6B" stroke-width="2.9717" stroke-linecap="round" stroke-linejoin="round" stroke-miterlimit="10" x1="999.141" y1="596.811" x2="999.141" y2="454.201"/>
		</g>
		<g id="LINE_4_">
			
				<line fill="none" stroke="#FF6B6B" stroke-width="2.9717" stroke-linecap="round" stroke-linejoin="round" stroke-miterlimit="10" x1="999.141" y1="250.334" x2="999.141" y2="120.27"/>
		</g>
		<g id="MTEXT_3_">
			<g>
				<g>
					<path fill="#FF6B6B" d="M989.209,266.207c0.455-1.016,1.048-1.787,1.779-2.313c0.73-0.525,1.488-0.807,2.273-0.842
						c0.16,0,0.289,0.053,0.388,0.16c0.098,0.106,0.146,0.24,0.146,0.401v1.203c0,0.196-0.04,0.356-0.12,0.481
						s-0.236,0.223-0.468,0.294c-0.909,0.231-1.552,0.736-1.926,1.512s-0.562,1.688-0.562,2.741c0,1.283,0.308,2.304,0.923,3.062
						c0.615,0.757,1.493,1.137,2.634,1.137c2.176,0,3.263-1.329,3.263-3.985v-2.514c0-0.179,0.059-0.326,0.174-0.441
						c0.116-0.116,0.264-0.174,0.441-0.174h0.695c0.268,0,0.499,0.098,0.695,0.294l5.777,5.215v-7.916
						c0-0.179,0.054-0.325,0.16-0.441c0.107-0.116,0.25-0.174,0.429-0.174h0.962c0.196,0,0.353,0.058,0.469,0.174
						c0.115,0.116,0.174,0.263,0.174,0.441v10.591c0,0.196-0.059,0.352-0.174,0.468c-0.116,0.116-0.272,0.174-0.469,0.174h-0.882
						c-0.196,0-0.401-0.089-0.615-0.268l-5.857-5.215v0.428c-0.054,1.819-0.526,3.259-1.417,4.319
						c-0.893,1.061-2.193,1.592-3.905,1.592c-1.177,0-2.188-0.29-3.035-0.869c-0.848-0.58-1.498-1.387-1.953-2.421
						c-0.454-1.034-0.682-2.202-0.682-3.504C988.527,268.427,988.755,267.224,989.209,266.207z"/>
					<path fill="#FF6B6B" d="M988.969,288.205c0.116-0.116,0.263-0.174,0.441-0.174h3.904v-8.692c0-0.179,0.058-0.325,0.174-0.441
						s0.264-0.174,0.441-0.174h0.99c0.249,0,0.517,0.098,0.802,0.294l11.34,8.051c0.143,0.089,0.254,0.223,0.334,0.4
						c0.081,0.179,0.121,0.375,0.121,0.589v1.818c0,0.196-0.054,0.348-0.161,0.455c-0.106,0.106-0.258,0.16-0.454,0.16h-11.34v2.434
						c0,0.179-0.059,0.325-0.174,0.441c-0.116,0.116-0.264,0.174-0.441,0.174h-1.017c-0.178,0-0.325-0.058-0.441-0.174
						s-0.174-0.263-0.174-0.441v-2.434h-3.904c-0.179,0-0.325-0.058-0.441-0.174s-0.174-0.263-0.174-0.441v-1.23
						C988.795,288.468,988.853,288.32,988.969,288.205z M995.508,281.505v6.553h9.308L995.508,281.505z"/>
					<path fill="#FF6B6B" d="M988.969,295.987c0.116-0.116,0.263-0.174,0.441-0.174h1.846c0.178,0,0.329,0.058,0.454,0.174
						s0.188,0.263,0.188,0.441v1.846c0,0.178-0.062,0.325-0.188,0.441c-0.125,0.115-0.276,0.174-0.454,0.174h-1.846
						c-0.179,0-0.325-0.059-0.441-0.174c-0.116-0.116-0.174-0.264-0.174-0.441v-1.846
						C988.795,296.25,988.853,296.104,988.969,295.987z"/>
					<path fill="#FF6B6B" d="M989.25,304.987c0.481-0.98,1.109-1.729,1.885-2.246c0.776-0.518,1.609-0.794,2.501-0.829h0.054
						c0.143,0,0.258,0.054,0.348,0.16c0.089,0.107,0.134,0.231,0.134,0.375v1.31c0,0.375-0.196,0.615-0.589,0.723
						c-0.963,0.268-1.681,0.762-2.152,1.484c-0.473,0.722-0.709,1.556-0.709,2.501c0,1.212,0.37,2.22,1.109,3.021
						c0.74,0.803,1.761,1.204,3.062,1.204c1.194,0,2.144-0.401,2.849-1.204c0.704-0.802,1.057-1.81,1.057-3.021
						c0-0.643-0.081-1.16-0.241-1.552c-0.16-0.393-0.393-0.794-0.695-1.203c-0.179-0.232-0.308-0.424-0.388-0.575
						s-0.12-0.316-0.12-0.495v-1.283c0-0.161,0.058-0.304,0.174-0.429c0.115-0.124,0.254-0.178,0.414-0.16l8.906,0.829
						c0.445,0.054,0.669,0.276,0.669,0.669v9.254c0,0.195-0.054,0.348-0.161,0.454c-0.106,0.107-0.258,0.161-0.454,0.161h-0.989
						c-0.179,0-0.321-0.059-0.429-0.174c-0.106-0.116-0.16-0.264-0.16-0.441v-7.703l-5.376-0.481
						c0.606,0.856,0.909,2.006,0.909,3.45c0,1.194-0.236,2.282-0.708,3.263c-0.473,0.98-1.164,1.761-2.073,2.341
						c-0.909,0.579-1.988,0.869-3.236,0.869c-1.319,0-2.456-0.29-3.409-0.869c-0.954-0.58-1.677-1.382-2.167-2.407
						s-0.735-2.198-0.735-3.517C988.527,307.127,988.769,305.968,989.25,304.987z"/>
					<path fill="#FF6B6B" d="M1002.862,318.132c0.107-0.08,0.241-0.103,0.401-0.067l3.744,0.589
						c0.518,0.071,0.776,0.321,0.776,0.749v1.712c0,0.124-0.045,0.227-0.134,0.307c-0.09,0.081-0.196,0.121-0.321,0.121
						c-0.179,0-0.321-0.027-0.428-0.08l-3.61-1.392c-0.197-0.089-0.344-0.187-0.441-0.294c-0.099-0.106-0.147-0.268-0.147-0.481
						v-0.829C1002.702,318.323,1002.756,318.212,1002.862,318.132z M1002.862,322.331c0.107-0.081,0.241-0.104,0.401-0.067
						l3.744,0.589c0.518,0.07,0.776,0.32,0.776,0.748v1.712c0,0.125-0.045,0.228-0.134,0.308c-0.09,0.08-0.196,0.12-0.321,0.12
						c-0.179,0-0.321-0.026-0.428-0.08l-3.61-1.391c-0.197-0.089-0.344-0.188-0.441-0.294c-0.099-0.107-0.147-0.268-0.147-0.481
						v-0.829C1002.702,322.522,1002.756,322.411,1002.862,322.331z"/>
					<path fill="#FF6B6B" d="M983.406,335.528c0.116-0.106,0.263-0.16,0.44-0.16h28.297c0.178,0,0.325,0.054,0.441,0.16
						c0.115,0.107,0.174,0.25,0.174,0.429v0.989c0,0.178-0.059,0.325-0.174,0.441c-0.116,0.115-0.264,0.174-0.441,0.174h-28.297
						c-0.178,0-0.324-0.059-0.44-0.174c-0.116-0.116-0.174-0.264-0.174-0.441v-0.989
						C983.232,335.778,983.29,335.636,983.406,335.528z"/>
					<path fill="#FF6B6B" d="M989.209,350.974c0.455-1.062,1.11-1.886,1.966-2.475c0.856-0.588,1.854-0.882,2.996-0.882
						c1.052,0,1.975,0.263,2.768,0.789c0.793,0.525,1.404,1.234,1.832,2.126c0.41-0.714,0.949-1.267,1.618-1.658
						c0.669-0.393,1.458-0.589,2.367-0.589c1.551,0,2.776,0.579,3.678,1.738c0.899,1.159,1.351,2.684,1.351,4.574
						c0,1.89-0.446,3.409-1.338,4.56s-2.122,1.725-3.69,1.725c-0.892,0-1.672-0.196-2.34-0.588
						c-0.669-0.393-1.218-0.937-1.646-1.632c-0.428,0.892-1.039,1.601-1.832,2.127c-0.793,0.525-1.725,0.789-2.795,0.789
						c-1.141,0-2.135-0.295-2.981-0.883c-0.848-0.589-1.498-1.413-1.953-2.475c-0.454-1.061-0.682-2.269-0.682-3.623
						C988.527,353.242,988.755,352.034,989.209,350.974z M991.576,357.767c0.643,0.847,1.498,1.271,2.567,1.271
						c1.07,0,1.926-0.424,2.567-1.271c0.643-0.847,0.963-1.903,0.963-3.169c0-1.284-0.32-2.35-0.963-3.196
						c-0.642-0.848-1.497-1.271-2.567-1.271c-1.069,0-1.925,0.423-2.567,1.271c-0.642,0.847-0.963,1.912-0.963,3.196
						C990.613,355.863,990.935,356.92,991.576,357.767z M1000.562,357.352c0.535,0.749,1.248,1.124,2.14,1.124
						c0.909,0,1.636-0.37,2.18-1.11s0.815-1.663,0.815-2.768c0-1.124-0.271-2.051-0.815-2.782c-0.544-0.73-1.271-1.096-2.18-1.096
						s-1.636,0.365-2.18,1.096c-0.544,0.731-0.815,1.658-0.815,2.782C999.742,355.685,1000.027,356.604,1000.562,357.352z"/>
					<path fill="#FF6B6B" d="M988.969,366.699c0.116-0.099,0.254-0.147,0.415-0.147l0.24,0.054l15.646,6.687v-8.826
						c0-0.179,0.058-0.325,0.174-0.441s0.263-0.174,0.441-0.174h0.989c0.196,0,0.353,0.054,0.469,0.161
						c0.115,0.106,0.174,0.258,0.174,0.454v10.912c0,0.196-0.059,0.348-0.174,0.454c-0.116,0.107-0.272,0.161-0.469,0.161h-0.909
						c-0.32,0-0.668-0.071-1.043-0.214l-15.458-6.606c-0.196-0.089-0.357-0.188-0.481-0.294c-0.125-0.107-0.188-0.259-0.188-0.455
						v-1.337C988.795,366.927,988.853,366.797,988.969,366.699z"/>
					<path fill="#FF6B6B" d="M988.969,376.942c0.116-0.116,0.263-0.174,0.441-0.174h1.846c0.178,0,0.329,0.058,0.454,0.174
						s0.188,0.263,0.188,0.441v1.846c0,0.178-0.062,0.325-0.188,0.441c-0.125,0.115-0.276,0.174-0.454,0.174h-1.846
						c-0.179,0-0.325-0.059-0.441-0.174c-0.116-0.116-0.174-0.264-0.174-0.441v-1.846
						C988.795,377.205,988.853,377.059,988.969,376.942z"/>
					<path fill="#FF6B6B" d="M989.25,385.941c0.481-0.98,1.109-1.729,1.885-2.246c0.776-0.518,1.609-0.794,2.501-0.829h0.054
						c0.143,0,0.258,0.054,0.348,0.16c0.089,0.107,0.134,0.231,0.134,0.375v1.31c0,0.375-0.196,0.615-0.589,0.723
						c-0.963,0.268-1.681,0.762-2.152,1.484c-0.473,0.722-0.709,1.556-0.709,2.501c0,1.212,0.37,2.22,1.109,3.021
						c0.74,0.803,1.761,1.204,3.062,1.204c1.194,0,2.144-0.401,2.849-1.204c0.704-0.802,1.057-1.81,1.057-3.021
						c0-0.643-0.081-1.16-0.241-1.552c-0.16-0.393-0.393-0.794-0.695-1.203c-0.179-0.232-0.308-0.424-0.388-0.575
						s-0.12-0.316-0.12-0.495v-1.283c0-0.161,0.058-0.304,0.174-0.429c0.115-0.124,0.254-0.178,0.414-0.16l8.906,0.829
						c0.445,0.054,0.669,0.276,0.669,0.669v9.254c0,0.195-0.054,0.348-0.161,0.454c-0.106,0.107-0.258,0.161-0.454,0.161h-0.989
						c-0.179,0-0.321-0.059-0.429-0.174c-0.106-0.116-0.16-0.264-0.16-0.441v-7.703l-5.376-0.481
						c0.606,0.856,0.909,2.006,0.909,3.45c0,1.194-0.236,2.282-0.708,3.263c-0.473,0.98-1.164,1.761-2.073,2.341
						c-0.909,0.579-1.988,0.869-3.236,0.869c-1.319,0-2.456-0.29-3.409-0.869c-0.954-0.58-1.677-1.382-2.167-2.407
						s-0.735-2.198-0.735-3.517C988.527,388.081,988.769,386.922,989.25,385.941z"/>
					<path fill="#FF6B6B" d="M990.146,407.15c1.078-1.07,2.59-1.632,4.533-1.686l1.07-0.026l1.069,0.026
						c1.943,0.054,3.454,0.615,4.533,1.686c1.079,1.069,1.618,2.559,1.618,4.466c0,1.284-0.228,2.367-0.682,3.25
						c-0.455,0.883-1.021,1.542-1.698,1.979c-0.679,0.437-1.355,0.673-2.033,0.708c-0.16,0.018-0.304-0.04-0.428-0.174
						c-0.125-0.134-0.188-0.28-0.188-0.441v-1.177c0-0.178,0.04-0.312,0.121-0.4c0.08-0.09,0.227-0.179,0.44-0.268
						c0.874-0.321,1.493-0.763,1.859-1.324c0.365-0.562,0.548-1.271,0.548-2.126c0-1.123-0.348-2.016-1.043-2.675
						c-0.695-0.66-1.756-1.017-3.183-1.069l-0.936-0.027l-0.937,0.027c-1.427,0.053-2.487,0.409-3.183,1.069
						c-0.695,0.659-1.043,1.552-1.043,2.675c0,0.873,0.183,1.587,0.548,2.14c0.365,0.552,0.985,0.989,1.859,1.311
						c0.214,0.089,0.36,0.178,0.441,0.268c0.08,0.089,0.12,0.223,0.12,0.4v1.177c0,0.161-0.062,0.308-0.188,0.441
						s-0.268,0.191-0.428,0.174c-0.66-0.035-1.328-0.271-2.006-0.708c-0.678-0.438-1.248-1.097-1.712-1.979
						c-0.463-0.883-0.695-1.966-0.695-3.25C988.527,409.709,989.066,408.22,990.146,407.15z"/>
					<path fill="#FF6B6B" d="M988.969,420.937c0.116-0.116,0.263-0.174,0.441-0.174h12.677c0.179,0,0.325,0.058,0.441,0.174
						s0.174,0.263,0.174,0.441v1.123c0,0.178-0.058,0.321-0.174,0.428c-0.116,0.107-0.263,0.161-0.441,0.161h-0.909
						c1.194,0.963,1.792,2.264,1.792,3.904c0,1.961-0.82,3.352-2.461,4.172c0.749,0.429,1.347,1.039,1.792,1.832
						c0.445,0.794,0.669,1.681,0.669,2.661c0,1.462-0.499,2.657-1.498,3.584c-0.998,0.927-2.442,1.391-4.332,1.391h-7.729
						c-0.179,0-0.325-0.058-0.441-0.174s-0.174-0.263-0.174-0.441v-1.149c0-0.179,0.058-0.326,0.174-0.441
						c0.116-0.116,0.263-0.174,0.441-0.174h7.488c1.427,0,2.447-0.294,3.062-0.883c0.615-0.588,0.923-1.364,0.923-2.326
						c0-0.856-0.317-1.592-0.949-2.207c-0.634-0.615-1.646-0.923-3.036-0.923h-7.488c-0.179,0-0.325-0.058-0.441-0.174
						s-0.174-0.263-0.174-0.441v-1.177c0-0.178,0.058-0.325,0.174-0.441c0.116-0.115,0.263-0.174,0.441-0.174h7.488
						c1.408,0,2.425-0.307,3.049-0.922s0.937-1.378,0.937-2.287c0-0.855-0.312-1.591-0.937-2.206s-1.631-0.923-3.021-0.923h-7.516
						c-0.179,0-0.325-0.059-0.441-0.174c-0.116-0.116-0.174-0.264-0.174-0.441v-1.177
						C988.795,421.199,988.853,421.053,988.969,420.937z"/>
				</g>
			</g>
		</g>
		<g id="POLYLINE_174_">
			
				<polyline fill="none" stroke="#FF6B6B" stroke-width="2.9717" stroke-linecap="round" stroke-linejoin="round" stroke-miterlimit="10" points="
				1010.395,585.555 999.141,596.811 987.884,585.555 			"/>
		</g>
		<g id="POLYLINE_173_">
			
				<polyline fill="none" stroke="#FF6B6B" stroke-width="2.9717" stroke-linecap="round" stroke-linejoin="round" stroke-miterlimit="10" points="
				1010.395,131.525 999.141,120.27 987.884,131.525 			"/>
		</g>
	</g>
</g>
<g id="N-TEXT">
</g>
<g id="AG-DIAGRAM">
	<g id="LINE_17_">
		<g>
			<g>
				
					<line fill="none" stroke="#FF6B6B" stroke-width="2.2288" stroke-linecap="round" stroke-linejoin="round" x1="757.279" y1="109.27" x2="759.508" y2="109.27"/>
				
					<line fill="none" stroke="#FF6B6B" stroke-width="2.2288" stroke-linecap="round" stroke-linejoin="round" stroke-dasharray="4.5422,7.5704" x1="767.078" y1="109.27" x2="993.434" y2="109.27"/>
				
					<line fill="none" stroke="#FF6B6B" stroke-width="2.2288" stroke-linecap="round" stroke-linejoin="round" x1="997.219" y1="109.27" x2="999.447" y2="109.27"/>
			</g>
		</g>
	</g>
	<g id="LINE_16_">
		<g>
			<g>
				
					<line fill="none" stroke="#FF6B6B" stroke-width="2.2288" stroke-linecap="round" stroke-linejoin="round" x1="963.173" y1="650.282" x2="963.173" y2="648.054"/>
				
					<line fill="none" stroke="#FF6B6B" stroke-width="2.2288" stroke-linecap="round" stroke-linejoin="round" stroke-dasharray="4.3633,7.2722" x1="963.173" y1="640.781" x2="963.173" y2="469.886"/>
				
					<line fill="none" stroke="#FF6B6B" stroke-width="2.2288" stroke-linecap="round" stroke-linejoin="round" x1="963.173" y1="466.249" x2="963.173" y2="464.021"/>
			</g>
		</g>
	</g>
	<g id="LINE_15_">
		<g>
			<g>
				
					<line fill="none" stroke="#FF6B6B" stroke-width="2.2288" stroke-linecap="round" stroke-linejoin="round" x1="545.277" y1="650.282" x2="545.277" y2="648.054"/>
				
					<line fill="none" stroke="#FF6B6B" stroke-width="2.2288" stroke-linecap="round" stroke-linejoin="round" stroke-dasharray="4.3633,7.2722" x1="545.277" y1="640.781" x2="545.277" y2="469.886"/>
				
					<line fill="none" stroke="#FF6B6B" stroke-width="2.2288" stroke-linecap="round" stroke-linejoin="round" x1="545.277" y1="466.249" x2="545.277" y2="464.021"/>
			</g>
		</g>
	</g>
</g>
<g id="AG-PEOPLE">
	<g id="POLYLINE_172_">
		
			<path fill="none" stroke="#FF6B6B" stroke-width="4.0861" stroke-linecap="round" stroke-linejoin="round" stroke-miterlimit="10" d="
			M584.736,471.646c0.73,12.164,4.776,23.82,9.414,35c1.294,3.126,2.626,6.229,4.039,9.306c0.436,0.948,1.26,2.235,1.132,3.347
			c-0.081,0.696-0.549,1.082-1.182,1.347c-1.84,0.773-4.23,0.244-6.032-0.364c-4.343-1.469-8.193-4.491-10.767-8.271
			c-1.689-2.479-2.896-5.283-3.651-8.182c-0.606-2.33-0.601-4.984-1.509-7.213c-0.186-0.453-0.409-0.926-0.96-0.885
			c-1.367,0.104-2.145,2.954-2.438,3.896c-1.716,5.56-2.186,11.669-2.495,17.451c-0.332,6.091,0.048,12.183,0.415,18.261
			c0.206,3.399,0.44,6.8,0.577,10.202c0.081,1.969,0.209,4.099-0.243,6.041c-0.187,0.798-0.479,1.632-1.335,1.868
			c-1.002,0.274-2.209-0.286-3.179-0.411c-0.234-0.031-0.77-0.169-1.001,0.025c-0.241,0.12-0.153,0.373-0.171,0.578
			c-0.053,0.644,0.354,1.396,0.465,2.042c0.101,0.603,0.146,1.213,0.096,1.824c-0.151,1.805-1.051,3.753-2.354,5.016
			c-0.96,0.931-1.999,1.211-3.25,0.691c-1.708-0.71-3.229-2.063-4.863-2.959c-1.119-0.613-2.089-1.366-2.838-2.411
			c-1.251-1.745-1.993-3.875-2.674-5.891c-1.048-3.104-2.022-6.251-3.325-9.26c-0.825-1.906-1.775-3.737-3.02-5.406
			c-1.652-2.217-3.854-3.771-5.674-5.807c-1.696-1.9-1.09-5.091-1.061-7.39c0.089-7.062,0.029-14.141,0.32-21.198
			c0.258-6.23,0.976-12.528,1.732-18.718c0.734-6.001,1.812-11.876,3.706-17.629c0.954-2.898,1.735-5.942,3.018-8.719
			c1.066-2.319,2.445-4.482,3.951-6.542c3.82-5.218,8.172-10.007,12.491-14.809c8.643-9.604,17.729-18.854,27.025-27.819
			c4.479-4.319,9.497-8.223,13.536-12.969c3.796-4.46,6.314-9.917,8.561-15.276c4.972-11.871,9.209-24.085,12.734-36.463
			c3.386-11.89,5.69-24.115,11.149-35.299c5.36-10.981,12.664-21.53,21.717-29.792c8.656-7.899,18.933-13.192,29.858-17.235
			c5.808-2.147,11.729-4.017,17.686-5.711c3.534-1.006,7.069-2.003,10.598-3.031c2.124-0.62,4.324-1.27,6.269-2.36
			c2.562-1.435,3.67-3.767,4.142-6.582c0.458-2.721,0.45-5.526,0.559-8.277c0.131-3.324,0.282-6.643,0.227-9.971
			c-0.028-1.707-0.142-3.414-0.342-5.108"/>
	</g>
	<g id="POLYLINE_171_">
		
			<path fill="none" stroke="#FF6B6B" stroke-width="4.0861" stroke-linecap="round" stroke-linejoin="round" stroke-miterlimit="10" d="
			M792.434,195.808c1.521,0.369,2.131,0.47,3.448-0.67c1.971-1.705,2.966-4.326,3.587-6.782c1.469-5.79,1.834-12.076,2.098-18.025
			c0.078-1.756,0.531-5.39-1.364-6.571c-2.071-1.291-4.335,0.763-5.315,2.436"/>
	</g>
	<g id="POLYLINE_170_">
		
			<path fill="none" stroke="#FF6B6B" stroke-width="4.0861" stroke-linecap="round" stroke-linejoin="round" stroke-miterlimit="10" d="
			M711.227,167.7c-0.646-5.607-0.53-11.455,0.366-17.031c0.795-4.952,2.542-9.473,5.615-13.458
			c3.637-4.719,8.364-8.773,13.225-12.182c4.46-3.129,9.44-5.263,14.832-6.122c5.52-0.875,11.219-0.782,16.773-0.277
			c5.192,0.47,10.854,1.115,15.564,3.52c3.798,1.938,6.413,5.25,8.422,8.941c2.855,5.246,4.725,11.097,6.148,16.878
			c1.475,5.979,2.49,12.063,2.714,18.226"/>
	</g>
	<g id="POLYLINE_169_">
		
			<path fill="none" stroke="#FF6B6B" stroke-width="4.0861" stroke-linecap="round" stroke-linejoin="round" stroke-miterlimit="10" d="
			M796.457,164.244c0.037-6.144-0.212-12.442-1.04-18.536c-0.785-5.808-2.44-11.317-4.781-16.688
			c-2.647-6.067-5.77-11.922-8.766-17.819c-1.209-2.387-2.486-3.307-5.012-4.126c-2.025-0.657-4.129-1.258-5.948-2.406
			c-1.625-1.025-2.876-2.497-4.205-3.864c-2.305-2.376-4.833-3.981-8.085-4.731c-4.185-0.965-8.509-0.527-12.63,0.541
			c-5.894,1.526-11.863,3.84-17.271,6.638c-1.672,0.863-3.331,1.819-4.721,3.102c-1.422,1.309-2.383,2.976-3.594,4.463
			c-2.156,2.658-5.73,3.711-7.841,6.322c-0.689,0.852-0.646,1.627-0.18,2.595c0.646,1.344,1.564,2.48,1.953,3.943
			c0.308,1.163,0.34,2.395,0.259,3.589c-0.09,1.346-0.331,2.712-0.784,3.984c-0.455,1.276-1.341,2.194-1.997,3.357
			c-2.066,3.675-2.312,8.567-2.707,12.665c-0.653,6.793-0.777,14.061,1.129,20.682"/>
	</g>
	<g id="POLYLINE_168_">
		
			<path fill="none" stroke="#FF6B6B" stroke-width="4.0861" stroke-linecap="round" stroke-linejoin="round" stroke-miterlimit="10" d="
			M715.399,189.616c0.392,5.602,2.032,11.304,3.732,16.635c1.643,5.145,3.731,10.21,6.873,14.638
			c6.186,8.726,16.291,13.759,26.884,14.308c10.752,0.553,22.851-3.161,29.972-11.576c7.494-8.852,8.901-21.433,9.952-32.538
			c0.204-2.176,0.26-4.331,0.234-6.516"/>
	</g>
	<g id="POLYLINE_167_">
		
			<path fill="none" stroke="#FF6B6B" stroke-width="4.0861" stroke-linecap="round" stroke-linejoin="round" stroke-miterlimit="10" d="
			M716.892,197.916c-5.761,3.465-7.146-8.135-7.67-11.19c-0.525-3.067-0.94-6.152-1.22-9.252c-0.183-2.037-0.334-4.171,0.033-6.198
			c0.284-1.564,1.035-3.062,2.687-3.485c2.116-0.543,3.01,0.749,3.416,2.606"/>
	</g>
	<g id="POLYLINE_166_">
		
			<path fill="none" stroke="#FF6B6B" stroke-width="4.0861" stroke-linecap="round" stroke-linejoin="round" stroke-miterlimit="10" d="
			M649.521,566.333c-3.561,5.098-7.246,10.303-10.214,15.771c-1.37,2.526-1.864,5.724-4.052,7.734
			c-2.345,2.154-5.41,3.222-7.064,6.09c-1.144,1.979-1.909,4.79-1.05,7.016c0.633,1.645,2.217,2.264,3.895,2.356
			c4.582,0.254,9.373-1.742,13.595-3.251c6.112-2.188,12.192-4.653,18.598-5.851c5.224-0.976,10.574-1.268,15.871-1.576
			c13.874-0.807,27.854-1.224,41.676-2.744c8.703-0.958,17.297-2.379,25.925-3.856"/>
	</g>
	<g id="POLYLINE_165_">
		
			<path fill="none" stroke="#FF6B6B" stroke-width="4.0861" stroke-linecap="round" stroke-linejoin="round" stroke-miterlimit="10" d="
			M692.247,481.963c0.032-12.647-0.71-25.366-2.052-37.944c-0.688-6.426-1.485-12.83-2.744-19.171
			c-1.324-6.647-3.317-13.146-5.152-19.663c-3.413-12.132-5.562-24.407-7.125-36.903c-1.259-10.105-2.219-20.25-2.961-30.407"/>
	</g>
	<g id="POLYLINE_164_">
		
			<path fill="none" stroke="#FF6B6B" stroke-width="4.0861" stroke-linecap="round" stroke-linejoin="round" stroke-miterlimit="10" d="
			M674.96,366.594c-5.349,11.876-9.075,24.518-13.219,36.843c-1.889,5.616-3.718,11.456-6.468,16.724
			c-2.642,5.059-6.479,9.353-10.659,13.189c-9.211,8.456-19.799,15.645-30.98,21.229c-4.849,2.423-9.863,4.485-15.053,6.064"/>
	</g>
	<g id="POLYLINE_163_">
		
			<path fill="none" stroke="#FF6B6B" stroke-width="4.0861" stroke-linecap="round" stroke-linejoin="round" stroke-miterlimit="10" d="
			M849.407,481.894c-2.33-12.506-3.491-25.176-4.625-37.835c-0.593-6.617-1.234-13.235-1.267-19.885
			c-0.025-5.768,0.639-11.44,1.825-17.078c1.385-6.572,2.867-13.126,3.594-19.813c0.655-6.061,0.754-12.17,0.49-18.257
			c-0.543-12.546-2.609-25.001-5.566-37.191c-0.151-0.613-0.3-1.228-0.446-1.841"/>
	</g>
	<g id="POLYLINE_162_">
		
			<path fill="none" stroke="#FF6B6B" stroke-width="4.0861" stroke-linecap="round" stroke-linejoin="round" stroke-miterlimit="10" d="
			M789.438,210.844c-1.008,6.205-0.471,12.62,0.318,18.82c0.362,2.853,0.659,5.813,1.401,8.596c0.246,0.923,0.587,1.785,1.198,2.529
			c1.428,1.739,3.491,3.068,5.309,4.36c2.522,1.792,5.066,3.571,7.769,5.08c5.337,2.979,11.164,5.149,16.919,7.169
			c6.233,2.191,12.501,4.272,18.825,6.194c5.808,1.763,11.852,3.011,17.481,5.296c10.9,4.427,17.326,14.893,22.686,24.826
			c5.851,10.848,10.807,22.186,15.323,33.647c5.009,12.701,9.666,25.611,15.375,38.024c5.029,10.937,11.518,21.066,18.659,30.733
			c8.158,11.042,16.648,21.908,24.291,33.32c3.491,5.216,6.578,10.782,8.721,16.695c2.114,5.854,3.336,11.956,4.26,18.098
			c1.889,12.553,2.853,25.444,3.186,38.131c0.166,6.319,0.366,12.688-0.167,18.994c-0.25,2.931-0.522,6.239-2.734,8.414
			c-1.824,1.795-3.996,3.249-5.894,4.974c-2.596,2.361-5.091,4.833-7.618,7.261c-1.633,1.566-3.259,3.245-5.142,4.514
			c-0.636,0.43-1.304,0.835-2.073,0.958c-0.58,0.094-1.007,0.019-1.535,0.297c-1.483,0.784-2.551,2.278-3.972,3.183
			c-2.453,1.561-6.063,1.666-8.756,0.649c-1.747-0.658-2.293-1.959-2.156-3.765c0.133-1.733,1.508-4.431,0.377-6.078
			c-0.525-0.764-1.483-1.119-2.099-1.81c-0.508-0.571-0.824-1.253-0.985-1.999c-0.312-1.423-0.098-2.969,0.126-4.383
			c0.462-2.908,1.284-5.766,2.156-8.572c1.822-5.867,3.838-11.614,4.336-17.783c0.363-4.495,0.683-9.922-0.867-14.249
			c-1.348-3.76-2.78,0.967-3.394,2.452c-2.732,6.621-8.69,14.814-16.802,14.72c-1.997-0.022-3.634-1.098-3.857-3.18
			c-0.267-2.469,1.46-3.844,2.986-5.479c4.835-5.177,0.938-13.282,4.066-19.279c0.839-1.608,1.895-3.078,2.46-4.816
			c0.79-2.415,0.961-4.997,1.455-7.479c0.267-1.354,0.636-2.687,1.332-3.89c0.789-1.357,2.036-2.412,2.76-3.805
			c1.134-2.193,0.022-4.905-1.573-6.562"/>
	</g>
	<g id="POLYLINE_161_">
		
			<path fill="none" stroke="#FF6B6B" stroke-width="4.0861" stroke-linecap="round" stroke-linejoin="round" stroke-miterlimit="10" d="
			M849.563,374.864c4.498,4.05,8.997,8.096,13.576,12.055c3.232,2.795,6.469,5.591,9.704,8.387c1.129,0.978,2.305,1.946,3.172,3.175
			c1.486,2.102,2.604,4.516,3.918,6.731c1.634,2.76,3.337,5.475,5.09,8.16c3.404,5.221,7.003,10.364,11.126,15.046
			c8.507,9.659,18.176,18.321,27.439,27.233"/>
	</g>
	<g id="POLYLINE_160_">
		
			<path fill="none" stroke="#FF6B6B" stroke-width="4.0861" stroke-linecap="round" stroke-linejoin="round" stroke-miterlimit="10" d="
			M584.736,471.646c0.002-4.676,3.297-7.637,7.408-9.269c5.361-2.124,11.479-2.665,17.191-2.385
			c6.289,0.309,12.026,2.177,17.532,5.175c5.411,2.945,10.656,6.092,16.402,8.358c5.82,2.296,11.883,4.007,18.015,5.261
			c12.506,2.557,25.324,2.196,37.921,4.063c12.616,1.868,25.024,4.928,37.694,6.457c12.493,1.507,25.138,1.812,37.713,1.551
			c13.077-0.269,26.185-0.826,39.171-2.455c6.345-0.797,12.636-1.855,18.887-3.194c6.364-1.361,12.647-3.119,19.035-4.369
			c2.48-0.483,4.987-0.796,7.522-0.727c2.111,0.059,4.232,0.387,6.339,0.055c2.216-0.352,4.275-1.356,6.275-2.319
			c3.009-1.451,5.943-3.062,8.902-4.602c10.963-5.699,22.808-9.417,34.527-13.21c3.119-1.01,6.235-2.02,9.354-3.03"/>
	</g>
	<g id="POLYLINE_159_">
		
			<path fill="none" stroke="#FF6B6B" stroke-width="4.0861" stroke-linecap="round" stroke-linejoin="round" stroke-miterlimit="10" d="
			M874.374,570.613c4.822,1.248,10.352,1.36,15.165,0.011c3.274-0.917,5.334-2.862,7.618-5.304
			c4.623-4.939,11.048-7.594,17.676-8.587"/>
	</g>
	<g id="POLYLINE_158_">
		
			<path fill="none" stroke="#FF6B6B" stroke-width="4.0861" stroke-linecap="round" stroke-linejoin="round" stroke-miterlimit="10" d="
			M914.833,556.733c5.528-2.187,11.008-4.476,16.484-6.786"/>
	</g>
	<g id="POLYLINE_157_">
		
			<line fill="none" stroke="#FF6B6B" stroke-width="4.0861" stroke-linecap="round" stroke-linejoin="round" stroke-miterlimit="10" x1="870.096" y1="571.878" x2="874.374" y2="570.613"/>
	</g>
	<g id="POLYLINE_156_">
		
			<path fill="none" stroke="#FF6B6B" stroke-width="4.0861" stroke-linecap="round" stroke-linejoin="round" stroke-miterlimit="10" d="
			M846.351,501.213c4.072,2.677,8.246,6.384,11.025,10.396c3.204,4.621,5.154,10.417,7.196,15.614
			c4.571,11.619,8.127,23.717,9.337,36.185c0.231,2.397,0.382,4.799,0.465,7.206"/>
	</g>
	<g id="POLYLINE_155_">
		
			<path fill="none" stroke="#FF6B6B" stroke-width="4.0861" stroke-linecap="round" stroke-linejoin="round" stroke-miterlimit="10" d="
			M846.351,501.213c-1.39-1.804,0.573-3.853,1.89-4.99c4.489-3.871,10.308-5.952,15.479-8.697c0.593-0.314,1.151-0.683,1.742-1.003"
			/>
	</g>
	<g id="POLYLINE_154_">
		
			<path fill="none" stroke="#FF6B6B" stroke-width="4.0861" stroke-linecap="round" stroke-linejoin="round" stroke-miterlimit="10" d="
			M745.425,551.546c12.688-2.674,25.04-6.638,37.191-11.132c11.812-4.369,22.419-10.6,32.71-17.799
			c5.193-3.635,10.183-7.49,14.922-11.703c4.23-3.756,9.38-6.334,14.403-8.855c0.565-0.284,1.134-0.562,1.699-0.844"/>
	</g>
	<g id="POLYLINE_153_">
		
			<path fill="none" stroke="#FF6B6B" stroke-width="4.0861" stroke-linecap="round" stroke-linejoin="round" stroke-miterlimit="10" d="
			M654.844,494.246c-2.244-1.069-4.501-2.101-6.78-3.095"/>
	</g>
	<g id="POLYLINE_152_">
		
			<path fill="none" stroke="#FF6B6B" stroke-width="4.0861" stroke-linecap="round" stroke-linejoin="round" stroke-miterlimit="10" d="
			M614.443,556.013c12.126,4.417,24.572,7.795,37.108,10.813c12.252,2.948,24.609,5.454,36.926,8.111
			c13.104,2.83,26.266,5.463,39.322,8.5c12.731,2.961,25.411,6.092,37.85,10.144c6.465,2.106,12.905,4.302,19.425,6.225
			c5.771,1.704,11.689,2.67,17.663,3.306c6.444,0.686,12.934,0.942,19.388,1.564c6.524,0.631,13.004,1.6,19.464,2.688
			c6.159,1.038,12.287,2.322,18.347,3.83c6.32,1.576,12.589,3.444,18.965,4.79c2.272,0.479,6.326,1.624,8.43-0.071
			c1.271-1.025,1.144-2.918,0.947-4.369c-0.422-3.099-1.536-7.359-4.002-9.563c-0.668-0.595-1.635-0.857-2.181-1.581
			c-0.562-0.743-0.594-1.865-0.684-2.745c-0.262-2.551-0.166-5.568-2.528-7.154c-1.712-1.148-2.945-1.325-3.071-3.528
			c-0.086-1.542,0.101-3.075-0.204-4.603c-0.291-1.467-0.899-2.854-1.585-4.175c-2.639-5.075-6.208-10.09-10.312-14.084
			c-2.614-2.547-5.777-4.708-9.507-5.043c-4.408-0.396-8.532,1.798-12.281,3.829c-4.087,2.213-8.116,4.707-12.83,5.203
			c-3.409,0.359-6.922,0.163-10.343,0.178c-2.963,0.014-5.924,0.004-8.887-0.116c-12.739-0.515-25.324-3.062-37.531-6.639
			c-12.162-3.564-24.017-8.42-35.472-13.821c-11.489-5.418-23.243-11.015-33.646-18.372c-5.052-3.574-9.254-7.861-13.811-12.009
			c-4.149-3.779-8.977-6.454-13.897-9.083c-3.303-1.765-6.608-3.52-9.888-5.325"/>
	</g>
	<g id="SPLINE_32_">
		
			<path fill="none" stroke="#FF6B6B" stroke-width="4.0861" stroke-linecap="round" stroke-linejoin="round" stroke-miterlimit="10" d="
			M570.348,529.264c3.357,2.76,7.075,5.252,9.57,8.88c1.054,1.527,1.885,3.215,2.078,5.081c0.224,2.139-0.214,4.304,0.421,6.399
			c1.123,3.695,4.576,6.764,7.632,8.901c3.217,2.247,6.844,3.503,10.787,3.407c3.657-0.09,7.676-0.928,10.89-2.737
			c3.378-1.904,2.841-5.011,2.82-8.345c-0.041-7.635,3.514-14.177,8.319-19.91c4.688-5.597,10.337-10.411,16.6-14.158
			c6.173-3.691,12.654-6.99,19.049-10.28c2.035-1.044,4.116-1.992,6.145-3.044c0.754-0.393,1.953-0.946,2.016-1.931
			c0.08-1.217-1.54-2.122-2.425-2.669c-5.018-3.098-10.778-5.363-16.186-7.707"/>
	</g>
	<g id="POLYLINE_151_">
		
			<path fill="none" stroke="#FF6B6B" stroke-width="4.0861" stroke-linecap="round" stroke-linejoin="round" stroke-miterlimit="10" d="
			M274.981,210.94c-0.777-3.572-2.75-5.957-5.621-8.162c-1.277-0.983-2.435-1.833-3.337-3.187c-1.524-2.285-2.605-4.94-3.547-7.507
			c-1.792-4.891-2.758-9.823-2.393-15.038c0.216-3.079,0.55-6.162,0.208-9.246c-0.262-2.359-0.908-4.715-0.908-7.098
			c0-2.835,1.943-4.19,3.596-6.248c1.777-2.213,1.836-5.292,1.753-7.992c-0.105-3.445-0.571-6.942,1.357-9.996
			c0.944-1.5,2.225-2.728,3.577-3.856c1.051-0.878,2.404-1.473,3.313-2.489c1.773-1.987,3.168-4.205,5.119-6.057
			c2.018-1.915,4.284-3.526,6.638-4.998c2.522-1.58,5.137-3.034,7.812-4.341c2-0.974,4.034-1.993,6.22-2.479
			c4.465-0.993,9.539-0.002,13.955,0.816c2.782,0.513,5.587,1.08,8.249,2.059c2.362,0.866,4.326,2.272,6.527,3.44
			c2.268,1.202,4.725,0.359,7.164,0.541c3.853,0.288,7.303,2.877,10.441,4.877c4.81,3.062,9.31,6.295,12.308,11.267
			c2.309,3.828,3.455,8.117,3.704,12.563c0.23,4.142-0.164,8.41-1.237,12.421"/>
	</g>
	<g id="SPLINE_31_">
		
			<path fill="none" stroke="#FF6B6B" stroke-width="4.0861" stroke-linecap="round" stroke-linejoin="round" stroke-miterlimit="10" d="
			M268.844,202.39c-0.95,3.146-2.033,6.291-3.574,9.204c-0.621,1.175-1.492,2.285-1.949,3.539c-0.892,2.443,1.463,6.527-1.449,7.863
			c-2.608,1.197,2.586,4.108,0.837,6.105c-0.938,1.07-2.653,1.475-3.906,2.042c-1.745,0.787-2.852,1.88-3.852,3.495
			c-0.817,1.319-1.62,2.005-3.253,1.688c-1.793-0.351-3.587-1.604-5.442-1.509c-1.67,0.088-2.037,2.174-2.416,3.449
			c-0.602,2.007-1.797,3.58-2.552,5.487c-0.666,1.688,0.184,3.392,0.95,4.891c0.193,0.38,2.04,4.121,0.735,3.284
			c-1.421-0.908-2.496-2.492-3.481-3.829c-1.239-1.674-2.304-3.483-2.972-5.465c-1.259-3.731-0.811-7.777-1.954-11.52
			c-0.882-2.885-3.221-5.011-4.093-7.945c-1.061-3.57-1.078-7.484-1.129-11.176c-0.123-8.674-0.093-17.566,0.864-26.196
			c0.173-1.564,0.399-3.139,0.906-4.631c0.386-1.136,1.078-2.157,1.397-3.313c0.346-1.246,0.185-2.611,0.108-3.883
			c-0.125-2.127-0.217-4.255-0.016-6.379c0.728-7.732,4.691-15.252,11.001-19.84c3.133-2.28,6.644-3.554,10.407-4.354
			c1.771-0.377,3.534-0.723,5.254-1.291c1.759-0.581,3.487-1.109,5.363-1.036"/>
	</g>
	<g id="POLYLINE_150_">
		
			<path fill="none" stroke="#FF6B6B" stroke-width="4.0861" stroke-linecap="round" stroke-linejoin="round" stroke-miterlimit="10" d="
			M292.185,172.021c-0.72-1.523-1.771-2.862-2.89-4.113c-1.153-1.289-2.443-2.848-4.074-3.557c-1.583-0.688-3.377-0.351-4.892,0.36
			c-5.419,2.536-6.247,9.135-5.312,14.414c0.885,4.997,2.993,10.091,5.981,14.201c1.577,2.17,3.612,4.176,6.143,5.182
			c2.66,1.056,5.22,0.527,7.767-0.615"/>
	</g>
	<g id="POLYLINE_149_">
		
			<path fill="none" stroke="#FF6B6B" stroke-width="4.0861" stroke-linecap="round" stroke-linejoin="round" stroke-miterlimit="10" d="
			M292.185,172.021c1.254,1.118,2.513,2.257,3.396,3.701c0.725,1.184,1.104,2.722,2.102,3.723c1.312,1.314,3.502,0.498,5.017,0.071
			c2.092-0.59,3.74-1.574,4.404-3.719c0.896-2.893,0.213-6.768,2.123-9.275c1.547-2.028,4.751-1.722,6.967-1.863
			c2.399-0.153,4.833-0.494,6.432-2.478c1.891-2.345,1.02-5.277,1.744-7.996c1.04-3.899,3.214-7.747,6.361-10.328
			c5.057-4.146,12.291-5.562,18.309-2.823c6.17,2.805,11.391,8.303,11.238,15.375c-0.028,1.283-0.188,2.558-0.396,3.822"/>
	</g>
	<g id="POLYLINE_148_">
		
			<path fill="none" stroke="#FF6B6B" stroke-width="4.0861" stroke-linecap="round" stroke-linejoin="round" stroke-miterlimit="10" d="
			M274.981,210.94c1.409-5.155,1.957-10.606,1.381-15.936c-0.288-2.652-1.229-5.143-1.762-7.742
			c-0.554-2.696-0.582-5.461-0.427-8.201c0.083-1.454,0.257-2.905,0.501-4.341"/>
	</g>
	<g id="POLYLINE_147_">
		
			<path fill="none" stroke="#FF6B6B" stroke-width="4.0861" stroke-linecap="round" stroke-linejoin="round" stroke-miterlimit="10" d="
			M294.426,217.37c3.104,3.844,6.241,7.213,10.75,9.362c5.476,2.612,11.484,4.182,17.355,5.631
			c5.619,1.386,11.487,3.004,17.325,2.842c2.763-0.076,5.952-0.619,8.019-2.625c1.714-1.664,1.877-4.011,1.616-6.259
			c-0.161-1.382-1.021-3.417,0.169-4.55c1.23-1.169,2.829-1.819,2.834-3.753c0.006-1.431-1.464-3.319-0.714-4.639
			c0.352-0.617,1.114-0.968,1.517-1.59c0.568-0.875,0.969-1.965,1.101-3.001c0.283-2.231-1.054-4.281-0.48-6.572
			c0.768-3.075,4.774-1.531,5.772-4.199c1.127-3.013-0.653-5.676-1.998-8.208c-1.283-2.416-0.602-4.811,0.061-7.311
			c1.913-7.222,2.458-14.816,2.129-22.269"/>
	</g>
	<g id="POLYLINE_146_">
		
			<path fill="none" stroke="#FF6B6B" stroke-width="4.0861" stroke-linecap="round" stroke-linejoin="round" stroke-miterlimit="10" d="
			M310.043,577.793c-0.971-5.851-1.353-11.771-2.202-17.644c-0.404-2.795-0.866-5.609-1.851-8.27
			c-0.988-2.671-2.529-5.1-3.857-7.607c-1.151-2.168-2.173-4.413-2.672-6.83c-0.396-1.922-0.622-3.911-1.396-5.733
			c-1.225-2.89-3.687-5.357-6.306-7.002c-2.703-1.7-5.881-2.24-8.344-4.372c-3.692-3.198-6.431-7.567-9.299-11.481
			c-4.217-5.757-8.464-11.493-12.649-17.271c-3.85-5.311-7.824-10.583-11.084-16.29c-3.127-5.479-5.866-11.157-9.131-16.563
			c-1.647-2.729-3.334-5.433-5.11-8.079c-1.442-2.148-3.079-4.19-4.318-6.471c-2.346-4.319-2.807-9.339-3.14-14.159
			c-0.406-5.91-0.473-11.854-0.521-17.774c-0.112-13.82-0.323-27.643-0.286-41.463c0.017-6.217,0.659-12.523-0.02-18.718
			c-0.66-6.029-2.044-12.018-3.824-17.808c-0.778-2.532-1.635-5.059-2.168-7.658c-0.574-2.803-0.745-5.654-0.849-8.508"/>
	</g>
	<g id="POLYLINE_145_">
		
			<path fill="none" stroke="#FF6B6B" stroke-width="4.0861" stroke-linecap="round" stroke-linejoin="round" stroke-miterlimit="10" d="
			M233.616,447.021c2.331-4.393,3.176-9.041,3.81-13.964c0.772-6.003,1.029-12.12,0.823-18.168
			c-0.429-12.53-3.218-24.485-7.499-36.229c-1.704-4.677-2.496-9.294-2.796-14.253"/>
	</g>
	<g id="POLYLINE_144_">
		
			<path fill="none" stroke="#FF6B6B" stroke-width="4.0861" stroke-linecap="round" stroke-linejoin="round" stroke-miterlimit="10" d="
			M363.354,443.639c-1.134-5.979-1.504-11.79-1.304-17.874c0.103-3.13,0.259-6.269,0.613-9.381c0.331-2.901,0.981-5.766,1.047-8.692
			c0.123-5.605-1.039-11.249-0.102-16.83c0.472-2.812,1.542-5.435,2.582-8.072c0.947-2.396,1.565-4.871,1.934-7.421
			c0.202-1.393,0.371-2.791,0.553-4.187"/>
	</g>
	<g id="POLYLINE_143_">
		
			<path fill="none" stroke="#FF6B6B" stroke-width="4.0861" stroke-linecap="round" stroke-linejoin="round" stroke-miterlimit="10" d="
			M306.218,552.523c-0.64-5.992-0.877-12.146-0.854-18.17c0.015-4.403,1.026-8.464,3.113-12.347
			c2.425-4.51,5.725-8.51,10.044-11.301c2.298-1.483,4.88-2.541,5.338-5.481c0.243-1.56,0.176-3.115,0.833-4.583
			c0.742-1.661,1.904-3.104,3.028-4.519c3.973-5.007,8.261-9.793,12.537-14.541c1.998-2.216,4.174-4.298,5.979-6.679
			c1.83-2.416,3.483-4.98,5.057-7.569c3.229-5.313,6.255-10.712,8.726-16.424c1.229-2.842,2.362-5.776,4.008-8.411
			c1.378-2.206,3.04-4.227,4.13-6.603c1.93-4.204,2.282-9.118,2.288-13.68c0.009-6.824-0.78-13.658-1.312-20.454
			c-0.453-5.814-0.622-11.681-0.603-17.512c0.015-4.358,0.065-8.712,0.146-13.069"/>
	</g>
	<g id="POLYLINE_142_">
		
			<path fill="none" stroke="#FF6B6B" stroke-width="4.0861" stroke-linecap="round" stroke-linejoin="round" stroke-miterlimit="10" d="
			M368.677,371.182c0.484-2.879,0.983-5.759,1.108-8.682c0.136-3.25-0.081-6.493-0.245-9.737c-0.303-5.967-0.1-11.695,1.054-17.574
			c0.793-4.037,1.646-8.057,2.825-12.004"/>
	</g>
	<g id="POLYLINE_141_">
		
			<path fill="none" stroke="#FF6B6B" stroke-width="4.0861" stroke-linecap="round" stroke-linejoin="round" stroke-miterlimit="10" d="
			M247.207,469.408c6.29-0.418,12.634-0.773,18.933-0.31c5.985,0.438,11.799,2.071,17.781,2.558
			c12.681,1.028,25.541-0.4,38.221-0.823c8.848-0.295,17.59,0.181,26.416,0.784"/>
	</g>
	<g id="POLYLINE_140_">
		
			<path fill="none" stroke="#FF6B6B" stroke-width="4.0861" stroke-linecap="round" stroke-linejoin="round" stroke-miterlimit="10" d="
			M238.268,415.554c12.702,0.219,25.414,0.451,38.117,0.159c13.757-0.316,27.492-0.853,41.235-1.504
			c6.27-0.298,12.537-0.71,18.798-1.152c6.211-0.438,12.457-0.818,18.605-1.834c2.858-0.472,5.705-0.994,8.563-1.468"/>
	</g>
	<g id="POLYLINE_139_">
		
			<path fill="none" stroke="#FF6B6B" stroke-width="4.0861" stroke-linecap="round" stroke-linejoin="round" stroke-miterlimit="10" d="
			M228.091,359.504c2.073-6.86,4.258-13.686,6.415-20.522c1.712-5.422,3.666-10.913,4.682-16.518
			c0.711-3.919-0.653-7.765-1.648-11.522c-1.895-7.162-3.79-14.325-5.685-21.486c-1.249-4.721-2.631-9.428-4.317-14.011
			c-1.166-3.175-2.463-5.947-5.01-8.165"/>
	</g>
	<g id="POLYLINE_138_">
		
			<path fill="none" stroke="#FF6B6B" stroke-width="4.0861" stroke-linecap="round" stroke-linejoin="round" stroke-miterlimit="10" d="
			M369.431,350.709c-1.534-5.896-3.243-11.661-5.282-17.405c-1.2-3.385-2.428-6.761-3.588-10.16
			c-0.721-2.113-1.491-4.254-1.795-6.477c-0.527-3.836,0.63-8.201,1.151-11.978c1.224-8.885,2.448-17.771,3.671-26.654
			c0.368-2.661,0.674-5.346,1.168-7.986c0.578-3.092,1.754-5.877,3.098-8.705"/>
	</g>
	<g id="POLYLINE_137_">
		
			<path fill="none" stroke="#FF6B6B" stroke-width="4.0861" stroke-linecap="round" stroke-linejoin="round" stroke-miterlimit="10" d="
			M226.526,265.835c1.616,2.296,3.163,4.574,4.312,7.146c1.211,2.71,2.107,5.558,2.916,8.411c1.812,6.396,3.041,12.947,4.395,19.451
			c2.384,11.448,5.847,22.63,13.68,31.58c7.689,8.785,18.633,14.912,29.459,18.95c5.426,2.024,10.917,3.101,16.726,2.621
			c5.764-0.479,11.45-2.054,16.889-3.967c11.165-3.926,21.849-9.791,29.581-18.922c7.693-9.086,11.346-20.32,12.954-31.955
			c0.953-6.897,1.574-13.849,2.331-20.771c0.581-5.3,1.221-10.912,3.332-15.858c0.369-0.865,0.796-1.708,1.304-2.499"/>
	</g>
	<g id="POLYLINE_136_">
		
			<path fill="none" stroke="#FF6B6B" stroke-width="4.0861" stroke-linecap="round" stroke-linejoin="round" stroke-miterlimit="10" d="
			M274.981,210.94c-1.072,6.376-2.957,12.571-4.732,18.775c-0.856,2.992-1.654,5.981-2.375,9.009
			c-0.469,1.967-0.91,3.995-1.875,5.79c-1.683,3.136-4.96,4.762-8.087,6.151c-5.785,2.569-11.682,4.774-17.298,7.716
			c-5.393,2.827-10.638,6.375-16.418,8.371c-2.67,0.922-5.42,1.523-8.041,2.593c-2.594,1.059-5.089,2.363-7.509,3.769
			c-10.026,5.819-18.72,14.196-21.145,25.902c-1.18,5.691-1.02,11.565-0.572,17.33c0.499,6.409,1.29,12.795,1.872,19.196
			c1.224,13.451,1.032,26.849,0.856,40.337c-0.158,12.321,0.295,24.562,1.508,36.827c0.662,6.711,1.529,13.392,2.437,20.073
			c0.384,2.835,0.813,5.663,1.275,8.485c0.506,3.098,0.818,6.283,1.493,9.347c1.096,4.971,4.469,8.818,7.447,12.797
			c4.051,5.41,7.843,11.012,11.711,16.554c7.113,10.193,14.578,20.236,22.547,29.782c2.119,2.537,4.291,5.01,6.541,7.435
			c1.412,1.525,2.176,2.97,2.938,4.902c1.728,4.384,4.765,7.491,8.14,10.688c2.694,2.553,6.014,5.061,7.235,8.716
			c0.951,2.847,1.551,5.787,2.57,8.621c0.964,2.687,2.05,5.339,3.304,7.904c1.265,2.588,3.159,6.929,6.457,7.484
			c1.184,0.198,2.1-0.371,3.236-0.508c0.25-0.03,0.494-0.083,0.736,0.021c0.202,0.085,0.318,0.233,0.453,0.398
			c0.27,0.329,0.392,0.826,0.525,1.218c0.473,1.399,0.857,2.831,1.319,4.237c0.906,2.758,1.978,6.728,4.678,8.379
			c0.678,0.413,1.432,0.621,2.224,0.634c1.104,0.02,2.166-0.56,3.253-0.478c1.916,0.143,2.568,2.952,3.573,4.207
			c1.605,2.009,5.907,3.004,6.649-0.3c0.285-1.271-0.376-2.866,0.101-4.039c0.082-0.205,0.099-0.354,0.305-0.474
			c0.224-0.128,0.541-0.015,0.768,0.031c1.075,0.221,2.056,0.982,3.2,0.858c1.481-0.163,2.348-1.85,3.834-1.892
			c1.633-0.047,2.866,1.738,4.561,1.364c0.748-0.164,1.978-1.583,2.666-0.953c0.527,0.483,0.284,2.326,0.325,2.865
			c0.087,1.095,0.229,2.214,0.694,3.22c1.908,4.121,6.649,2.362,8.298-1.104c0.371-0.779-0.013-1.95,0.799-2.181
			c0.474-0.135,1.403,0.309,1.939,0.361c0.459,0.046,0.929,0.058,1.384-0.034c0.685-0.14,1.267-0.49,1.771-0.963
			c1.025-0.961,1.732-2.374,1.908-3.767c0.173-1.355-0.163-2.707,0.3-4.028c1.139-3.263,4.799-4.955,6.016-8.113
			c0.643-1.666,0.774-3.545,0.982-5.302c0.437-3.695,0.872-7.393,1.309-11.089c0.684-5.791,1.619-11.672,3.499-17.208
			c1.555-4.574,4.298-8.878,4.648-13.778c0.093-1.296-0.047-2.671,0.518-3.879c0.768-1.645,2.178-3.04,3.333-4.419
			c8.9-10.638,17.757-21.307,26.409-32.147c3.832-4.801,7.566-9.71,11.078-14.753c3.326-4.78,6.461-9.729,8.505-15.21
			c1.002-2.683,2.146-5.464,2.856-8.239c0.721-2.81,0.935-5.735,1.133-8.618c0.425-6.198,0.455-12.44,0.448-18.651
			c-0.012-13.047-0.207-26.12-1.159-39.137c-0.476-6.498-1.12-13.008-1.359-19.52c-0.247-6.738,0.2-13.438,0.581-20.161
			c0.703-12.418,0.443-25.035-1.368-37.354c-0.781-5.317-1.893-10.912-4.713-15.567c-2.32-3.83-5.84-6.703-9.661-8.959
			c-10.87-6.419-23.23-10.473-35.08-14.659c-6.31-2.23-12.709-4.231-19.058-6.347c-3.319-1.104-7.298-2.204-9.88-4.726
			c-3.267-3.19-2.444-8.45-1.309-12.38"/>
	</g>
	<g id="POLYLINE_135_">
		
			<path fill="none" stroke="#FF6B6B" stroke-width="4.0861" stroke-linecap="round" stroke-linejoin="round" stroke-miterlimit="10" d="
			M350.688,520.298c4.409-4.709,9.165-9.114,13.872-13.522c4.378-4.102,9.114-7.781,14.212-10.949
			c10.616-6.596,22.234-11.751,34.085-15.684c5.154-1.709,10.391-3.115,15.718-4.178"/>
	</g>
	<g id="POLYLINE_92_">
		
			<path fill="none" stroke="#FF6B6B" stroke-width="4.0861" stroke-linecap="round" stroke-linejoin="round" stroke-miterlimit="10" d="
			M251.769,528.863c-5.336-2.628-10.635-5.673-15.271-9.421c-2.4-1.939-4.533-4.181-6.852-6.213
			c-2.302-2.021-4.728-3.888-7.201-5.689c-10.123-7.378-21.317-13.398-33.051-17.781c-8.479-3.166-17.165-5.67-26.059-7.363"/>
	</g>
	<g id="POLYLINE_87_">
		
			<path fill="none" stroke="#FF6B6B" stroke-width="4.0861" stroke-linecap="round" stroke-linejoin="round" stroke-miterlimit="10" d="
			M371.27,489.315c5.971-1.976,11.924-4.036,17.559-6.854c5.536-2.77,10.617-6.326,15.934-9.476
			c10.995-6.511,22.875-11.082,34.479-16.351c10.948-4.969,21.842-12.124,34.392-10.601c10.842,1.318,20.322,8.299,25.041,18.116
			c4.331,9.013,3.209,18.77-1.057,27.581c-5.283,10.914-14.276,20.034-23.242,27.999c-9.673,8.592-20.199,16.026-30.938,23.212
			c-10.785,7.215-22.007,13.796-33.085,20.549"/>
	</g>
	<g id="POLYLINE_86_">
		
			<path fill="none" stroke="#FF6B6B" stroke-width="4.0861" stroke-linecap="round" stroke-linejoin="round" stroke-miterlimit="10" d="
			M204.474,561.511c-2.028,3.14-3.698,5.999-3.937,9.792c-0.182,2.87,0.095,5.744,0.32,8.604c0.151,1.896,0.596,4.064,0.219,5.967
			c-0.298,1.491-1.696,1.671-2.709,2.66c-1.591,1.553-2.612,3.697-3.247,5.801c-1.55,5.146-1.232,13.719,5.104,15.537
			c3.343,0.959,6.415-1.137,9.131-2.788c5.294-3.221,10.657-6.054,16.59-7.928c12.144-3.836,25-5.454,37.59-7.081
			c10.53-1.36,21.098-2.313,31.671-3.287"/>
	</g>
	<g id="POLYLINE_85_">
		
			<path fill="none" stroke="#FF6B6B" stroke-width="4.0861" stroke-linecap="round" stroke-linejoin="round" stroke-miterlimit="10" d="
			M338.168,567.882c2.786,0.845,5.489,1.819,8.415,2.051c2.754,0.219,5.538,0.059,8.284-0.178
			c7.139-0.615,14.254-1.531,21.372-2.334c5.687-0.641,11.415-1.179,17.049-2.194c5.307-0.956,11.188-2.687,16.625-1.812
			c8.802,1.414,13.955,11.147,16.576,18.737c0.956,2.77,1.464,5.609,2.217,8.433c0.676,2.538,2.012,4.766,3.116,7.131
			c1.021,2.186,2.215,5.162,1.137,7.558c-1.007,2.241-3.702,2.575-5.889,2.535c-5.334-0.1-11.073-1.693-15.771-4.205
			c-3.371-1.802-5.982-4.005-9.936-4.033c-5.942-0.046-11.959,1.208-17.854,1.834c-12.762,1.353-25.696,2.403-38.536,1.861
			c-5.993-0.253-11.995-0.91-17.856-2.206c-2.877-0.636-5.75-1.417-8.479-2.537c-2.638-1.083-5.011-2.648-7.534-3.955
			c-5.499-2.842-11.505-4.516-17.432-6.206c-6.629-1.89-13.311-3.605-19.967-5.394c-6.007-1.615-12.024-3.183-17.975-4.996
			c-6.229-1.901-12.305-4.17-18.392-6.47c-11.843-4.48-23.878-8.223-36.305-10.729c-11.771-2.375-24.465-3.332-35.155-9.248
			c-5.562-3.079-10.512-7.124-15.519-11.007c-4.808-3.73-9.638-7.41-14.603-10.93c-10.427-7.396-21.797-14.528-30.306-24.204
			c-6.398-7.278-9.15-16.065-6.696-25.551c2.593-10.029,9.103-21.009,18.744-25.638c9.349-4.486,20.382-0.498,29.335,3.09
			c13.542,5.426,27.021,11.012,40.521,16.543c5.361,2.197,10.645,4.575,15.952,6.892c2.241,0.979,4.504,1.968,6.872,2.603
			c2.775,0.743,5.583,0.866,8.438,1.019"/>
	</g>
</g>
<g id="AG-OUTLINE">
	<g id="SPLINE_38_">
		
			<path fill="none" stroke="#FF6B6B" stroke-width="5.2004" stroke-linecap="round" stroke-linejoin="round" stroke-miterlimit="10" d="
			M674.96,366.594c-6.944,15.105-10.938,31.441-16.826,46.96c-2.063,5.437-4.667,10.354-8.535,14.74
			c-5.014,5.689-11.071,10.517-17.221,14.921c-10.284,7.361-21.625,13.797-33.797,17.429c7.653-1.334,15.866-0.979,23.095,2.013
			c7.302,3.021,13.753,7.723,21.106,10.675c7.495,3.012,15.416,5.086,23.391,6.348c8.637,1.363,17.393,1.409,26.074,2.284
			c0.125-14.184-0.891-28.5-2.554-42.58c-0.913-7.739-2.223-15.395-4.23-22.928c-1.896-7.112-4.109-14.135-5.79-21.305
			C677.471,385.748,676.106,376.176,674.96,366.594C671.892,373.269,675.765,373.315,674.96,366.594z"/>
	</g>
	<g id="SPLINE_37_">
		
			<path fill="none" stroke="#FF6B6B" stroke-width="5.2004" stroke-linecap="round" stroke-linejoin="round" stroke-miterlimit="10" d="
			M923.589,455.651c-8.904-8.515-18.144-16.839-26.374-26.024c-8.041-8.973-14.435-19.318-20.355-29.771
			c-2.182-3.857-6.271-6.475-9.563-9.313c-5.976-5.151-11.899-10.368-17.732-15.679c0.018,8.571-1.019,16.995-2.768,25.375
			c-1.495,7.148-3.082,14.181-3.255,21.52c-0.214,9.028,0.845,18.055,1.669,27.03c0.852,9.229,1.739,18.464,3.225,27.616
			c0.267,1.649,0.558,3.297,0.869,4.938c3.649-0.807,7.283-1.393,11.029-1.187c2.686,0.148,5.148,0.273,7.728-0.654
			c2.97-1.068,5.761-2.639,8.548-4.104c3.645-1.915,7.301-3.812,11.065-5.481C899.441,464.705,911.693,460.57,923.589,455.651
			C904.554,437.448,905.068,463.31,923.589,455.651z"/>
	</g>
	<g id="SPLINE_36_">
		
			<path fill="none" stroke="#FF6B6B" stroke-width="5.2004" stroke-linecap="round" stroke-linejoin="round" stroke-miterlimit="10" d="
			M570.348,529.264c0.209,4.417,0.545,8.827,0.789,13.24c0.168,3.033,0.807,6.919-0.319,9.817c-0.985,2.539-3.612-0.085-5.271,0.729
			c-0.618,0.304,0.357,3.111,0.382,3.665c0.075,1.887-0.727,3.841-1.907,5.293c-1.101,1.354-2.471,1.878-4.088,1.03
			c-1.798-0.944-3.63-2.174-5.335-3.283c-2.636-1.719-3.704-4.987-4.676-7.816c-1.253-3.642-2.354-7.36-4.04-10.835
			c-1.585-3.275-3.884-5.917-6.58-8.321c-1.77-1.579-2.426-2.679-2.468-5.1c-0.058-3.388,0.047-6.789,0.088-10.178
			c0.075-6.341,0.036-12.688,0.595-19.008c0.655-7.39,1.167-14.834,2.539-22.136c1.071-5.688,2.889-11.274,4.841-16.72
			c1.811-5.048,5.303-9.388,8.678-13.471c4.411-5.339,9.117-10.439,13.854-15.49c9.983-10.648,20.403-20.729,31.042-30.708
			c4.467-4.19,7.758-8.857,10.398-14.386c3.184-6.663,5.798-13.608,8.273-20.56c2.742-7.696,5.26-15.477,7.427-23.354
			c2.065-7.51,3.727-15.154,6.21-22.545c5.2-15.451,14.809-30.358,27.03-41.188c12.44-11.027,28.282-16.626,43.978-21.286
			c5.975-1.773,12.355-2.977,18.078-5.474c1.794-0.784,3.44-1.858,4.378-3.633c1.54-2.911,1.45-6.584,1.578-9.782
			c0.156-3.935,0.39-7.87,0.316-11.809c-0.032-1.611,0.287-4.426-0.628-5.782c-1.003-1.493-1.897-3.058-2.704-4.665
			c-2.788-5.568-4.454-11.565-5.914-17.595c-6.269,3.738-7.636-10.683-8.131-14.068c-0.553-3.74-1.171-7.65-0.866-11.438
			c0.093-1.159,0.288-2.422,0.993-3.381c0.264-0.359,0.598-0.665,0.981-0.892c0.543-0.316,0.292-0.433,0.145-1.004
			c-0.252-0.992-0.456-1.997-0.621-3.006c-1.172-7.147-0.78-14.648,0.321-21.781c0.417-2.681,0.805-5.7,2.282-8.038
			c1.227-1.938,2.133-3.461,2.476-5.851c0.246-1.737,0.286-3.612-0.291-5.293c-0.516-1.51-1.86-2.805-2.142-4.375
			c-0.231-1.289,1.016-2.216,1.919-2.89c1.485-1.107,3.102-2.029,4.547-3.188c2.934-2.352,4.361-5.874,7.604-7.965
			c3.642-2.354,7.809-3.931,11.847-5.469c7.729-2.945,17.374-6.043,25.146-1.481c3.346,1.965,5.264,5.618,8.741,7.399
			c1.591,0.815,3.311,1.323,5.006,1.871c1.149,0.369,2.408,0.732,3.313,1.573c1.173,1.085,1.817,2.754,2.514,4.15
			c1.013,2.033,2.058,4.048,3.091,6.07c2.461,4.818,4.876,9.693,6.73,14.782c1.853,5.087,2.875,10.38,3.308,15.768
			c0.395,4.925,0.724,9.894,0.653,14.833c1.059-0.785,2.87-1.246,3.986-0.312c1.086,0.909,1.126,2.693,1.158,3.988
			c0.108,4.062-0.409,8.201-0.832,12.237c-0.404,3.826-0.793,7.937-2.412,11.478c-0.589,1.288-1.375,2.532-2.446,3.477
			c-1.204,1.062-2.061,0.99-3.546,0.688c-0.553,4.103-1.133,8.203-2.146,12.224c-0.511,2.034-1.006,3.928-1.167,6.024
			c-0.158,2.1-0.171,4.208-0.098,6.312c0.131,3.752,0.533,7.492,1.056,11.211c0.377,2.688,0.457,5.966,1.782,8.396
			c1.358,2.486,4.519,4.238,6.75,5.805c2.265,1.592,4.554,3.161,6.977,4.504c6.341,3.52,13.309,5.921,20.14,8.289
			c7.618,2.638,15.315,5.073,23.087,7.216c6.619,1.826,13.166,3.696,18.457,8.298c5.521,4.804,9.498,11.347,13.052,17.659
			c4.499,7.993,8.35,16.35,11.945,24.78c6.864,16.094,12.424,32.757,19.737,48.654c6.828,14.841,16.422,27.924,26.127,40.981
			c10.569,14.222,22.783,28.319,27.461,45.782c2.241,8.367,3.144,17.027,3.977,25.627c0.807,8.309,1.387,16.646,1.663,24.989
			c0.153,4.679,0.221,9.367,0.083,14.046c-0.104,3.519-0.04,7.586-1.425,10.894c-1.194,2.862-4.448,4.562-6.668,6.536
			c-2.682,2.387-5.218,4.929-7.804,7.41c-2.061,1.978-4.458,4.875-7.2,5.882c-0.589,0.216-1.212,0.08-1.79,0.28
			c-1.475,0.511-2.661,2.166-3.91,3.062c-1.624,1.165-3.488,1.604-5.467,1.538c-1.688-0.055-4.031-0.188-5.235-1.556
			c-0.186-0.208-0.324-0.441-0.432-0.698c-0.525,0.225-1.051,0.449-1.573,0.673c-1.03,0.44-2.061,0.878-3.094,1.313
			c-2.197,0.925-4.401,1.839-6.613,2.732c-1.205,0.488-2.409,0.97-3.619,1.447c-1.323,0.521-2.583,0.757-3.965,1.062
			c-2.416,0.537-4.791,1.307-7.058,2.304c-2.164,0.954-4.23,2.129-6.024,3.68c-1.79,1.551-3.215,3.465-4.999,5.015
			c-3.255,2.828-7.856,3.246-11.991,3.353c-4.099,0.106-8.19,0.096-12.285,0.352c2.089,3.02,4.449,6.305,5.381,9.913
			c0.443,1.727,0.252,3.456,0.34,5.213c0.086,1.789,1.035,2.347,2.469,3.139c3.178,1.753,2.794,5.292,3.233,8.436
			c0.194,1.389,0.658,2.048,1.846,2.747c1.485,0.874,2.329,2.369,3.018,3.896c1.179,2.604,2.642,6.362,1.848,9.265
			c-0.689,2.533-3.879,2.324-5.931,2.082c-7.31-0.861-14.502-3.428-21.623-5.194c-8.839-2.194-17.786-3.932-26.798-5.248
			c-8.936-1.304-17.899-1.919-26.896-2.634c-7.758-0.618-15.384-1.764-22.856-3.96c-5.98-1.758-11.869-3.828-17.804-5.734
			c-3.825-1.23-7.667-2.414-11.527-3.53c-2.127-0.617-4.261-1.214-6.399-1.789c-1.181-0.319-1.909-0.419-3.104-0.207
			c-1.067,0.186-2.133,0.373-3.201,0.559c-7.829,1.36-15.68,2.529-23.597,3.274c-15.845,1.489-31.783,1.659-47.625,3.109
			c-6.237,0.57-12.11,1.822-18.022,3.886c-3.983,1.392-7.922,2.915-11.936,4.224c-3.322,1.086-7.258,2.506-10.805,1.875
			c-3.215-0.573-3.696-3.772-3.011-6.536c0.948-3.816,3.76-5.704,6.816-7.791c3.174-2.168,3.696-5.671,5.446-8.858
			c2.025-3.693,4.479-7.188,6.791-10.706c1.101-1.675,2.214-3.338,3.372-4.973c-11.835-2.888-23.654-6.053-35.077-10.32
			c-0.533,2.301-2.896,3.424-4.909,4.188c-2.468,0.937-5.114,1.505-7.746,1.687c-5.563,0.384-10.415-1.868-14.483-5.555
			c-1.89-1.712-3.785-3.769-4.708-6.188c-1.045-2.731-0.09-5.674-0.894-8.444C580.094,536.159,574.542,532.71,570.348,529.264"/>
	</g>
	<g id="SPLINE_35_">
		
			<path fill="none" stroke="#FF6B6B" stroke-width="5.2004" stroke-linecap="round" stroke-linejoin="round" stroke-miterlimit="10" d="
			M227.954,364.407c-0.201,15.574,0.064,31.155,0.2,46.728c0.06,6.819,0.086,13.663,0.644,20.462
			c0.464,5.631,1.564,10.731,4.818,15.425c2.651-5.08,3.489-10.587,4.072-16.259c0.828-8.07,0.884-16.293-0.024-24.357
			c-0.813-7.28-2.426-14.512-4.692-21.478c-0.989-3.045-2.218-6.007-3.194-9.056C228.591,372.161,228.161,368.282,227.954,364.407
			C227.796,376.614,228.136,367.795,227.954,364.407z"/>
	</g>
	<g id="SPLINE_34_">
		
			<path fill="none" stroke="#FF6B6B" stroke-width="5.2004" stroke-linecap="round" stroke-linejoin="round" stroke-miterlimit="10" d="
			M368.677,371.182c-0.444,3.409-0.796,6.852-1.932,10.119c-0.952,2.739-2.21,5.353-2.864,8.194
			c-1.447,6.291,0.128,12.676-0.201,19.023c-0.148,2.856-0.795,5.667-1.087,8.511c-0.307,2.974-0.46,5.964-0.554,8.949
			c-0.186,6.002,0.187,11.763,1.314,17.66c1.397-2.508,3.309-4.693,4.58-7.271c1.095-2.219,1.679-4.65,2.035-7.089
			c0.844-5.805,0.428-11.708-0.041-17.526C368.837,398.208,368.337,384.771,368.677,371.182
			C368.25,374.458,368.453,380.127,368.677,371.182z"/>
	</g>
	<g id="SPLINE_33_">
		
			<path fill="none" stroke="#FF6B6B" stroke-width="5.2004" stroke-linecap="round" stroke-linejoin="round" stroke-miterlimit="10" d="
			M204.474,561.511c-8.771-1.958-17.75-3.01-26.446-5.282c-7.393-1.933-13.828-5.31-19.966-9.802
			c-6.73-4.925-13.139-10.267-19.913-15.134c-6.823-4.905-13.786-9.624-20.42-14.791c-6.166-4.802-12.531-10.073-16.488-16.93
			c-3.776-6.541-4.232-13.866-2.128-21.042c2.067-7.044,5.899-13.845,11.113-19.035c5.326-5.303,11.883-7.91,19.412-7.104
			c8.633,0.923,16.836,4.713,24.794,7.942c8.314,3.375,16.639,6.728,24.938,10.141c7.243,2.979,14.433,6.074,21.598,9.235
			c2.337,1.031,4.677,2.082,7.085,2.939c3.474,1.236,6.924,1.47,10.565,1.692c-4.786-6.688-9.311-13.567-14.225-20.163
			c-2.044-2.74-4.278-5.404-6.005-8.363c-1.767-3.026-2.203-6.273-2.715-9.669c-1.925-12.746-3.86-25.448-4.969-38.301
			c-0.824-9.553-1.165-19.114-1.094-28.704c0.069-9.459,0.401-18.921,0.159-28.38c-0.24-9.37-1.338-18.659-2.27-27.978
			c-0.791-7.902-1.645-16.121,0.045-23.969c3.095-14.385,15.904-24.393,29.005-29.631c3.376-1.35,6.975-1.985,10.293-3.491
			c3.386-1.535,6.606-3.441,9.867-5.219c4.028-2.196,8.1-4.297,12.325-6.096c3.848-1.64,7.839-3.036,11.54-4.998
			c3.273-1.737,5.423-4.007,6.505-7.579c1.258-4.156,2.097-8.44,3.308-12.616c1.421-4.9,2.883-9.8,3.941-14.794
			c0.242-1.145,0.463-2.296,0.651-3.45c-0.26-1.193-0.611-2.372-1.189-3.452c-1.127-2.104-3.057-3.704-4.948-5.099
			c-0.426,2.053-0.875,4.005-1.12,6.09c-0.238,2.018-1.336,3.047-2.729,4.367c-1.271,1.206-1.978,2.495-1.944,4.277
			c0.027,1.424,0.819,3.685,0.02,4.987c-0.448,0.731-2.386,0.953-1.992,2.017c0.487,1.314,1.702,2.289,1.956,3.714
			c0.247,1.392-1.296,2.031-2.33,2.486c-1.641,0.72-3.419,1.286-4.626,2.686c-0.829,0.963-1.357,2.686-2.574,3.235
			c-1.551,0.7-3.699-0.512-5.149-1.006c-1.537-0.525-3.061-0.759-3.824,0.962c-0.826,1.862-1.116,3.84-2.179,5.613
			c-0.949,1.583-1.659,2.896-1.033,4.759c0.576,1.709,2.018,3.339,2.229,5.145c0.135,1.144-2.376-1.503-2.586-1.758
			c-1.314-1.584-2.56-3.241-3.495-5.083c-1.878-3.695-1.821-7.736-2.456-11.734c-0.503-3.175-2.413-5.142-3.752-7.928
			c-1.569-3.265-1.723-7.11-1.854-10.669c-0.165-4.526-0.051-9.062,0.054-13.59c0.102-4.371,0.204-8.753,0.556-13.112
			c0.25-3.115,0.69-6.029,2.054-8.868c1.269-2.641,0.406-5.905,0.413-8.72c0.01-4.178,0.973-8.291,2.705-12.09
			c3.614-7.926,10.401-12.979,18.826-14.771c1.771-0.377,3.534-0.723,5.254-1.291c0.825-0.273,1.648-0.558,2.496-0.755
			c0.445-0.104,0.896-0.183,1.354-0.232c0.604-0.063,1.479,0.234,1.547-0.438c0.389-3.886,3.14-6.804,6.186-8.999
			c0.588-0.423,1.302-0.724,1.824-1.23c0.792-0.763,1.381-1.768,2.053-2.634c2.453-3.158,5.421-5.747,8.752-7.945
			c6.021-3.973,13.053-8.354,20.503-7.907c7.042,0.426,15.049,1.48,21.181,5.18c1.016,0.616,2.003,1.349,3.119,1.772
			c1.751,0.664,3.705,0.156,5.517,0.155c4.356-0.002,8.169,2.92,11.689,5.145c6.788,4.294,12.517,9.483,14.698,17.497
			c1.112,4.085,1.187,8.439,0.753,12.63c-0.191,1.847-0.491,3.686-0.952,5.485c-0.235,0.926-0.035,2.011-0.024,2.967
			c0.014,1.23-0.004,2.461-0.044,3.689c-0.135,3.975-0.443,7.984-1.186,11.894c-0.602,3.174-2.493,6.865-1.585,10.093
			c0.49,1.741,1.78,3.116,2.392,4.814c0.563,1.566,0.892,4.205-0.326,5.579c-1.064,1.202-3.052,0.746-4.304,1.71
			c-1.483,1.144-1.293,3.623-0.918,5.239c0.458,1.961,0.573,3.494-0.353,5.366c-0.377,0.763-0.87,1.3-1.515,1.841
			c-0.695,0.582-0.502,1.317-0.273,2.091c0.475,1.623,1.127,3.357-0.033,4.849c-0.72,0.924-2.547,1.529-2.714,2.774
			c-0.196,1.465,0.387,3.073,0.473,4.539c0.103,1.725-0.145,3.513-1.294,4.87c-2.174,2.571-6.082,3.091-9.239,3.066
			c-4.082-0.029-8.155-0.882-12.12-1.787c-1.104-0.252-2.206-0.518-3.307-0.791c-0.524-0.129-1.05-0.562-1.228,0.076
			c-0.106,0.377-0.204,0.755-0.295,1.138c-0.431,1.821-0.697,3.713-0.556,5.588c0.438,5.828,5.603,7.733,10.391,9.423
			c16.628,5.864,33.648,10.685,49.612,18.3c5.804,2.768,11.852,6.049,15.486,11.555c3.597,5.448,4.679,12.33,5.499,18.68
			c1.026,7.964,1.384,16.028,1.362,24.056c-0.021,7.981-0.798,15.924-0.983,23.898c-0.152,6.531,0.409,13.043,0.909,19.55
			c0.63,8.219,1.131,16.44,1.382,24.681c0.244,8.038,0.344,16.08,0.295,24.122c-0.042,6.868-0.014,13.835-0.85,20.661
			c-0.35,2.846-1.13,5.36-2.103,8.027c-1.665,4.562-3.291,8.913-5.807,13.115c-3.354,5.604-7.321,10.852-11.289,16.029
			c-4.61,6.016-9.367,11.922-14.173,17.783c8.256-2.701,16.275-5.777,23.726-10.296c7.093-4.3,14.013-8.739,21.521-12.308
			c7.689-3.654,15.586-6.845,23.342-10.349c7.229-3.263,14.274-7.562,22.007-9.548c15.8-4.052,32.483,4.871,38.015,20.203
			c5.524,15.316-4.062,30.303-13.98,41.339c-20.353,22.652-47.471,37.854-73.108,53.654c-0.81,0.497-1.623,0.991-2.438,1.48
			c7.84,1.52,12.557,9.692,15.311,16.478c1.462,3.599,2.089,7.328,3.158,11.033c1.098,3.805,3.824,7.025,4.432,10.986
			c1.276,8.311-10.302,5.636-14.834,4.373c-3.634-1.012-6.897-2.545-10.101-4.522c-2.186-1.35-4.326-2.241-6.913-2.272
			c-2.624-0.03-5.256,0.347-7.854,0.661c-3.878,0.472-7.757,0.946-11.644,1.348c-8.096,0.832-16.222,1.46-24.359,1.71
			c-8.455,0.26-16.941,0.064-25.312-1.261c-5.554-0.879-11.289-2.122-16.301-4.771c-1.944-1.026-3.808-2.198-5.784-3.167
			c-3.323-1.627-6.833-2.843-10.36-3.937c-2.023-0.629-3.951-1.42-6.073-1.23c-2.046,0.182-4.092,0.362-6.138,0.549
			c-3.844,0.351-7.687,0.721-11.524,1.132c-16.062,1.72-32.554,3.458-48.118,7.951c-6.934,2.002-13.08,5.199-19.215,8.922
			c-2.033,1.235-4.244,2.632-6.705,2.644c-3.475,0.02-6.039-2.777-7.052-5.888c-1.243-3.814-0.707-8.321,0.913-11.944
			c0.633-1.415,1.475-2.802,2.61-3.872c0.664-0.625,1.841-0.934,2.311-1.722c0.64-1.069,0.365-2.689,0.284-3.873
			c-0.122-1.812-0.303-3.619-0.431-5.43c-0.259-3.688-0.472-7.563,1.002-11.042C202.388,564.619,203.467,563.083,204.474,561.511
			C202.115,560.984,202.662,564.338,204.474,561.511z"/>
	</g>
</g>
</svg>
